# Blender v2.81 (sub 16) OBJ File: 'oso-uv.blend'
# www.blender.org
mtllib oso-nariz-r.mtl
o Cube.009_Cube.016
v 0.085421 -0.450129 1.135848
v 0.072255 -0.462872 1.131288
v 0.099167 -0.430236 1.130749
v 0.085114 -0.451746 1.151345
v 0.085003 -0.450008 1.166269
v 0.103248 -0.427449 1.151222
v 0.067737 -0.471334 1.149592
v 0.071596 -0.463986 1.168398
v 0.034396 -0.499858 1.145963
v 0.036588 -0.490388 1.130222
v 0.039245 -0.489581 1.163800
v 0.021297 -0.508350 1.145459
v 0.021961 -0.500156 1.130494
v 0.026678 -0.496108 1.162609
v 0.012847 -0.512889 1.145070
v 0.013148 -0.505025 1.130589
v 0.017186 -0.500362 1.161586
v 0.003163 -0.515953 1.144882
v 0.003521 -0.508069 1.130682
v 0.004287 -0.504572 1.160749
v 0.000000 -0.516631 1.145111
v 0.000000 -0.505541 1.160968
v 0.000000 -0.509122 1.130819
v -0.003163 -0.515953 1.144882
v -0.003521 -0.508069 1.130682
v -0.012847 -0.512889 1.145070
v -0.004287 -0.504572 1.160749
v -0.017186 -0.500362 1.161586
v -0.005661 -0.478129 1.172749
v -0.022413 -0.472223 1.174782
v -0.006973 -0.437829 1.179929
v 0.000000 -0.480051 1.172603
v 0.000000 -0.441647 1.178799
v 0.005661 -0.478129 1.172749
v 0.022413 -0.472223 1.174782
v 0.006973 -0.437829 1.179929
v 0.028287 -0.429093 1.183236
v 0.008185 -0.387779 1.181347
v 0.034976 -0.374768 1.185386
v 0.009432 -0.346720 1.171548
v 0.000000 -0.394465 1.178680
v 0.000000 -0.355930 1.168185
v -0.008185 -0.387779 1.181347
v -0.034976 -0.374768 1.185386
v -0.009432 -0.346720 1.171548
v -0.040787 -0.329900 1.175157
v -0.010745 -0.332832 1.148149
v -0.011563 -0.347448 1.125564
v 0.000000 -0.342887 1.146026
v -0.043849 -0.314711 1.149943
v -0.043464 -0.330829 1.125492
v -0.066257 -0.310593 1.149850
v -0.062519 -0.325864 1.175487
v -0.064310 -0.326475 1.125253
v -0.089849 -0.313565 1.149945
v -0.087036 -0.327862 1.125301
v -0.085237 -0.328118 1.175645
v -0.123752 -0.337882 1.148736
v -0.121519 -0.346913 1.126520
v -0.120189 -0.346542 1.171764
v -0.129461 -0.355439 1.148033
v -0.126865 -0.356958 1.165578
v -0.127538 -0.357889 1.131225
v -0.128180 -0.375895 1.148510
v -0.124831 -0.375435 1.127422
v -0.123526 -0.375176 1.170501
v -0.119251 -0.400461 1.149860
v -0.115092 -0.401796 1.128112
v -0.113354 -0.402506 1.172144
v -0.103248 -0.427449 1.151222
v -0.099167 -0.430236 1.130749
v -0.098025 -0.430494 1.171322
v -0.085114 -0.451746 1.151345
v -0.085003 -0.450008 1.166269
v -0.085421 -0.450129 1.135848
v -0.067737 -0.471334 1.149592
v -0.072255 -0.462872 1.131288
v -0.071596 -0.463986 1.168398
v -0.034396 -0.499858 1.145963
v -0.036588 -0.490388 1.130222
v -0.039245 -0.489581 1.163800
v -0.021297 -0.508350 1.145459
v -0.021961 -0.500156 1.130494
v -0.026678 -0.496108 1.162609
v -0.033797 -0.468216 1.176374
v -0.042663 -0.425215 1.184940
v -0.047448 -0.463503 1.177611
v -0.058906 -0.422552 1.185803
v -0.082882 -0.442121 1.179158
v -0.097502 -0.409952 1.182979
v -0.110957 -0.374047 1.182176
v -0.073225 -0.370822 1.186937
v -0.053429 -0.370842 1.186497
v -0.028287 -0.429093 1.183236
v -0.013148 -0.505025 1.130589
v -0.031908 -0.468360 1.122382
v -0.045791 -0.420521 1.118429
v -0.048401 -0.458994 1.121822
v -0.020870 -0.473568 1.122691
v -0.031392 -0.425796 1.118770
v -0.006181 -0.478384 1.122988
v 0.000000 -0.480562 1.123137
v -0.009399 -0.434053 1.119303
v 0.000000 -0.438189 1.119569
v -0.011239 -0.385612 1.117658
v 0.000000 -0.392404 1.117976
v -0.039309 -0.372846 1.116959
v -0.057234 -0.367978 1.116651
v -0.078077 -0.365382 1.116478
v -0.114696 -0.370929 1.118031
v -0.064382 -0.413625 1.117984
v -0.102516 -0.403761 1.118709
v -0.086043 -0.437732 1.121997
v 0.000000 -0.356570 1.125194
v 0.011239 -0.385612 1.117658
v 0.011563 -0.347448 1.125564
v 0.039309 -0.372846 1.116959
v 0.009399 -0.434053 1.119303
v 0.031392 -0.425796 1.118770
v 0.006181 -0.478384 1.122988
v 0.020870 -0.473568 1.122691
v 0.031908 -0.468360 1.122382
v 0.045791 -0.420521 1.118429
v 0.048401 -0.458994 1.121822
v 0.064382 -0.413625 1.117984
v 0.086043 -0.437732 1.121997
v 0.102516 -0.403761 1.118709
v 0.115092 -0.401796 1.128112
v 0.114696 -0.370929 1.118031
v 0.121519 -0.346913 1.126520
v 0.124831 -0.375435 1.127422
v 0.078077 -0.365382 1.116478
v 0.057234 -0.367978 1.116651
v 0.087036 -0.327862 1.125301
v 0.064310 -0.326475 1.125253
v 0.089849 -0.313565 1.149945
v 0.066257 -0.310593 1.149850
v 0.085237 -0.328118 1.175645
v 0.123752 -0.337882 1.148736
v 0.120189 -0.346542 1.171764
v 0.129461 -0.355439 1.148033
v 0.126865 -0.356958 1.165578
v 0.127538 -0.357889 1.131225
v 0.128180 -0.375895 1.148510
v 0.123526 -0.375176 1.170501
v 0.119251 -0.400461 1.149860
v 0.113354 -0.402506 1.172144
v 0.098025 -0.430494 1.171322
v 0.097502 -0.409952 1.182979
v 0.058906 -0.422552 1.185803
v 0.110957 -0.374047 1.182176
v 0.082882 -0.442121 1.179158
v 0.047448 -0.463503 1.177611
v 0.033797 -0.468216 1.176374
v 0.042663 -0.425215 1.184940
v 0.053429 -0.370842 1.186497
v 0.062519 -0.325864 1.175487
v 0.073225 -0.370822 1.186937
v 0.040787 -0.329900 1.175157
v 0.043849 -0.314711 1.149943
v 0.043464 -0.330829 1.125492
v 0.010745 -0.332832 1.148149
vt 0.024556 0.152834
vt 0.018497 0.145706
vt 0.023525 0.139847
vt 0.032855 0.147969
vt 0.027159 0.036541
vt 0.024024 0.050245
vt 0.016887 0.054059
vt 0.020208 0.042605
vt 0.013346 0.137141
vt 0.009140 0.125278
vt 0.018450 0.122663
vt 0.021195 0.136604
vt 0.028058 0.133944
vt 0.034868 0.139473
vt 0.026870 0.123659
vt 0.042764 0.163871
vt 0.048573 0.158006
vt 0.047891 0.149557
vt 0.051057 0.166630
vt 0.054503 0.159936
vt 0.052729 0.151863
vt 0.055981 0.167388
vt 0.057998 0.160715
vt 0.056312 0.153243
vt 0.061024 0.167642
vt 0.061460 0.161013
vt 0.061000 0.154420
vt 0.062675 0.167398
vt 0.062596 0.160954
vt 0.062517 0.154598
vt 0.064029 0.154383
vt 0.063733 0.160985
vt 0.064332 0.167602
vt 0.067186 0.160601
vt 0.069368 0.167223
vt 0.068687 0.153090
vt 0.062396 0.144759
vt 0.064423 0.144068
vt 0.070513 0.141740
vt 0.064615 0.129475
vt 0.071899 0.126121
vt 0.062224 0.130855
vt 0.060352 0.144119
vt 0.059800 0.129534
vt 0.054206 0.141941
vt 0.052435 0.126361
vt 0.059219 0.112763
vt 0.062025 0.114709
vt 0.050673 0.109236
vt 0.048056 0.097799
vt 0.057611 0.099087
vt 0.061850 0.100582
vt 0.066051 0.098983
vt 0.064781 0.112695
vt 0.073237 0.108957
vt 0.075571 0.097459
vt 0.067319 0.090573
vt 0.061717 0.089802
vt 0.077067 0.091282
vt 0.076818 0.084574
vt 0.066355 0.081522
vt 0.061584 0.079011
vt 0.081850 0.085698
vt 0.081504 0.091662
vt 0.080298 0.097212
vt 0.085677 0.092252
vt 0.084777 0.097504
vt 0.086873 0.086716
vt 0.096536 0.088112
vt 0.093483 0.093705
vt 0.092178 0.098697
vt 0.101339 0.089807
vt 0.097899 0.095689
vt 0.095171 0.099267
vt 0.102158 0.100195
vt 0.096428 0.103657
vt 0.109500 0.094717
vt 0.115154 0.107679
vt 0.105454 0.108980
vt 0.097849 0.111844
vt 0.115154 0.123969
vt 0.105782 0.121584
vt 0.097390 0.122788
vt 0.111242 0.135932
vt 0.103382 0.135589
vt 0.096455 0.133099
vt 0.092007 0.147238
vt 0.089785 0.138795
vt 0.101133 0.138888
vt 0.100424 0.151897
vt 0.106304 0.144622
vt 0.082494 0.163380
vt 0.076541 0.157661
vt 0.077014 0.149197
vt 0.074271 0.166344
vt 0.070661 0.159736
vt 0.072235 0.151622
vt 0.074607 0.140057
vt 0.079502 0.138017
vt 0.076645 0.124457
vt 0.081876 0.122957
vt 0.092015 0.128171
vt 0.092977 0.115964
vt 0.092540 0.105456
vt 0.083458 0.107377
vt 0.078363 0.107862
vt 0.067176 0.014580
vt 0.071432 0.016946
vt 0.075517 0.032542
vt 0.070558 0.029983
vt 0.078391 0.021764
vt 0.082710 0.037301
vt 0.080008 0.053892
vt 0.074265 0.051279
vt 0.087161 0.057695
vt 0.063807 0.027711
vt 0.065165 0.047527
vt 0.062469 0.013160
vt 0.060938 0.026735
vt 0.061173 0.045786
vt 0.060764 0.012673
vt 0.065638 0.066966
vt 0.061404 0.064462
vt 0.075840 0.071707
vt 0.081735 0.073800
vt 0.088208 0.075933
vt 0.100258 0.080291
vt 0.101808 0.065917
vt 0.098421 0.049326
vt 0.105650 0.052963
vt 0.108699 0.068761
vt 0.106043 0.082310
vt 0.094949 0.035704
vt 0.102047 0.041594
vt 0.056876 0.081639
vt 0.057232 0.067069
vt 0.057226 0.047625
vt 0.046491 0.084949
vt 0.047151 0.072062
vt 0.048221 0.051601
vt 0.058093 0.027781
vt 0.051401 0.030220
vt 0.059072 0.013202
vt 0.054401 0.014738
vt 0.042544 0.054355
vt 0.046506 0.032901
vt 0.050205 0.017208
vt 0.039433 0.037836
vt 0.043367 0.022197
vt 0.035488 0.058333
vt 0.021048 0.066915
vt 0.014230 0.069928
vt 0.022952 0.081246
vt 0.017220 0.083407
vt 0.034891 0.076592
vt 0.026866 0.088973
vt 0.022107 0.090785
vt 0.036492 0.087339
vt 0.041310 0.074300
vt 0.041489 0.086197
vt 0.037824 0.092843
vt 0.030056 0.094489
vt 0.041982 0.092150
vt 0.043325 0.097669
vt 0.038854 0.098071
vt 0.031484 0.099447
vt 0.025691 0.096581
vt 0.028506 0.100091
vt 0.021544 0.101191
vt 0.027359 0.104510
vt 0.014070 0.095896
vt 0.008738 0.108993
vt 0.018467 0.110054
vt 0.026140 0.112730
vt 0.031113 0.116728
vt 0.031289 0.106212
vt 0.032375 0.128908
vt 0.045128 0.138442
vt 0.042383 0.123445
vt 0.040417 0.107908
vt 0.050072 0.140361
vt 0.047650 0.124816
vt 0.045522 0.108268
vt 0.046407 0.091661
vt 0.056136 0.090711
vn 0.5676 -0.6167 -0.5454
vn 0.7465 -0.6154 -0.2530
vn 0.7718 -0.6357 0.0114
vn 0.6710 -0.7413 -0.0102
vn 0.4112 -0.3717 -0.8323
vn 0.7672 -0.5141 -0.3834
vn 0.8426 -0.5380 0.0238
vn 0.7435 -0.6135 0.2660
vn 0.5594 -0.6677 0.4911
vn 0.7658 -0.4947 0.4108
vn 0.4225 -0.5934 -0.6851
vn 0.5603 -0.8282 -0.0097
vn 0.3965 -0.6948 0.6000
vn 0.3379 -0.5856 -0.7367
vn 0.4733 -0.8805 0.0269
vn 0.2663 -0.6707 0.6923
vn 0.2535 -0.6061 -0.7539
vn 0.3567 -0.9331 0.0456
vn 0.1985 -0.6512 0.7325
vn 0.1633 -0.6060 -0.7785
vn 0.2622 -0.9642 0.0397
vn 0.1700 -0.6410 0.7484
vn 0.0000 -0.6674 -0.7447
vn 0.0000 -0.9969 0.0782
vn 0.0000 -0.6573 0.7536
vn -0.1700 -0.6410 0.7484
vn -0.2622 -0.9642 0.0397
vn -0.1633 -0.6060 -0.7785
vn -0.3568 -0.9331 0.0456
vn -0.2535 -0.6061 -0.7539
vn -0.1985 -0.6512 0.7325
vn 0.0000 -0.3196 0.9475
vn -0.0224 -0.3005 0.9535
vn 0.0039 -0.3121 0.9500
vn 0.1315 -0.0923 0.9870
vn 0.0956 -0.0987 0.9905
vn 0.0000 -0.1151 0.9933
vn 0.0224 -0.3005 0.9535
vn -0.1315 -0.0923 0.9870
vn -0.0039 -0.3121 0.9500
vn -0.0956 -0.0987 0.9905
vn -0.3010 0.1145 0.9467
vn 0.0000 0.0672 0.9977
vn -0.1478 0.1201 0.9817
vn -0.2632 0.5958 0.7588
vn -0.5004 0.5131 0.6973
vn 0.0000 0.5085 0.8611
vn 0.5004 0.5131 0.6973
vn 0.3010 0.1145 0.9467
vn 0.1478 0.1201 0.9817
vn 0.2632 0.5958 0.7588
vn 0.5706 0.8203 -0.0378
vn 0.0000 0.9915 -0.1302
vn 0.3201 0.9471 -0.0228
vn 0.2126 0.5675 -0.7954
vn 0.3408 0.5224 -0.7816
vn 0.0000 0.4257 -0.9048
vn 0.0452 0.5931 -0.8038
vn 0.0341 0.9993 -0.0165
vn 0.0434 0.6209 0.7826
vn -0.3290 0.9443 0.0017
vn -0.2177 0.5983 0.7711
vn -0.2009 0.6028 -0.7721
vn -0.6009 0.4274 -0.6754
vn -0.7557 0.6549 0.0043
vn -0.6128 0.4150 0.6724
vn -0.9101 0.1049 -0.4008
vn -0.9889 0.1480 0.0133
vn -0.9083 0.1100 0.4035
vn -0.9756 -0.2184 0.0232
vn -0.8542 -0.1483 0.4984
vn -0.8547 -0.1733 -0.4893
vn -0.8001 -0.3851 -0.4599
vn -0.9097 -0.4144 0.0275
vn -0.8024 -0.3531 0.4810
vn -0.7672 -0.5141 -0.3834
vn -0.8426 -0.5380 0.0238
vn -0.7658 -0.4947 0.4108
vn -0.7465 -0.6154 -0.2530
vn -0.7718 -0.6357 0.0114
vn -0.7435 -0.6135 0.2660
vn -0.6710 -0.7413 -0.0102
vn -0.5594 -0.6677 0.4911
vn -0.5676 -0.6167 -0.5454
vn -0.4225 -0.5934 -0.6851
vn -0.5603 -0.8282 -0.0097
vn -0.3965 -0.6948 0.6000
vn -0.3379 -0.5856 -0.7367
vn -0.4733 -0.8805 0.0269
vn -0.2663 -0.6707 0.6923
vn -0.0256 -0.3306 0.9434
vn -0.1380 -0.3717 0.9180
vn 0.0519 -0.1011 0.9935
vn -0.0382 -0.1141 0.9927
vn -0.4287 -0.4234 0.7980
vn -0.3931 -0.2140 0.8942
vn -0.4213 0.0135 0.9068
vn -0.0625 0.1120 0.9917
vn 0.0511 0.1222 0.9912
vn -0.0820 -0.1936 -0.9776
vn -0.0580 -0.1812 -0.9817
vn -0.1402 -0.2394 -0.9607
vn -0.0008 -0.0590 -0.9982
vn 0.0009 -0.0584 -0.9983
vn -0.0241 -0.0679 -0.9974
vn -0.0355 -0.1705 -0.9847
vn 0.0017 -0.0582 -0.9983
vn 0.0000 -0.1899 -0.9818
vn 0.0000 -0.0654 -0.9978
vn 0.0722 0.0890 -0.9934
vn 0.0000 0.0433 -0.9991
vn 0.0551 0.0940 -0.9940
vn 0.0264 0.0966 -0.9950
vn -0.0334 0.1084 -0.9935
vn -0.3834 0.0137 -0.9235
vn -0.3562 -0.2124 -0.9099
vn -0.4112 -0.3717 -0.8323
vn -0.3408 0.5224 -0.7816
vn -0.0722 0.0890 -0.9934
vn -0.0017 -0.0582 -0.9983
vn -0.2126 0.5675 -0.7954
vn -0.0551 0.0940 -0.9940
vn -0.0009 -0.0584 -0.9983
vn 0.0355 -0.1705 -0.9847
vn 0.0580 -0.1812 -0.9817
vn 0.0008 -0.0590 -0.9982
vn 0.0820 -0.1936 -0.9776
vn 0.1402 -0.2394 -0.9607
vn 0.0241 -0.0679 -0.9974
vn 0.3562 -0.2124 -0.9099
vn 0.8001 -0.3851 -0.4599
vn 0.3834 0.0137 -0.9235
vn 0.8547 -0.1733 -0.4893
vn 0.0334 0.1084 -0.9935
vn 0.6009 0.4274 -0.6754
vn 0.9101 0.1049 -0.4008
vn 0.2009 0.6028 -0.7721
vn -0.0264 0.0966 -0.9950
vn -0.0452 0.5931 -0.8038
vn 0.3290 0.9443 0.0017
vn 0.7557 0.6549 0.0043
vn -0.0341 0.9993 -0.0165
vn -0.0434 0.6209 0.7826
vn 0.2177 0.5983 0.7711
vn 0.6128 0.4150 0.6724
vn 0.9889 0.1480 0.0133
vn 0.9083 0.1100 0.4035
vn 0.9756 -0.2184 0.0232
vn 0.8542 -0.1483 0.4984
vn 0.9097 -0.4144 0.0275
vn 0.8024 -0.3531 0.4810
vn 0.3931 -0.2140 0.8942
vn 0.4213 0.0135 0.9068
vn 0.4287 -0.4234 0.7980
vn 0.1380 -0.3717 0.9180
vn 0.0382 -0.1141 0.9927
vn 0.0625 0.1120 0.9917
vn 0.0256 -0.3306 0.9434
vn -0.0519 -0.1011 0.9935
vn -0.0511 0.1222 0.9912
vn -0.3201 0.9471 -0.0228
vn -0.5706 0.8203 -0.0378
usemtl None
s 1
f 2/1/1 1/2/2 4/3/3 7/4/4
f 2/5/1 126/6/5 3/7/6 1/8/2
f 1/9/2 3/10/6 6/11/7 4/12/3
f 7/4/4 4/3/3 5/13/8 8/14/9
f 4/12/3 6/11/7 148/15/10 5/13/8
f 10/16/11 2/1/1 7/4/4 9/17/12
f 9/17/12 7/4/4 8/14/9 11/18/13
f 13/19/14 10/16/11 9/17/12 12/20/15
f 12/20/15 9/17/12 11/18/13 14/21/16
f 16/22/17 13/19/14 12/20/15 15/23/18
f 15/23/18 12/20/15 14/21/16 17/24/19
f 19/25/20 16/22/17 15/23/18 18/26/21
f 18/26/21 15/23/18 17/24/19 20/27/22
f 23/28/23 19/25/20 18/26/21 21/29/24
f 21/29/24 18/26/21 20/27/22 22/30/25
f 21/29/24 22/30/25 27/31/26 24/32/27
f 23/28/23 21/29/24 24/32/27 25/33/28
f 25/33/28 24/32/27 26/34/29 95/35/30
f 24/32/27 27/31/26 28/36/31 26/34/29
f 22/30/25 32/37/32 29/38/33 27/31/26
f 27/31/26 29/38/33 30/39/34 28/36/31
f 29/38/33 31/40/35 94/41/36 30/39/34
f 32/37/32 33/42/37 31/40/35 29/38/33
f 32/37/32 34/43/38 36/44/39 33/42/37
f 22/30/25 20/27/22 34/43/38 32/37/32
f 20/27/22 17/24/19 35/45/40 34/43/38
f 34/43/38 35/45/40 37/46/41 36/44/39
f 33/42/37 36/44/39 38/47/42 41/48/43
f 36/44/39 37/46/41 39/49/44 38/47/42
f 38/47/42 39/49/44 159/50/45 40/51/46
f 41/48/43 38/47/42 40/51/46 42/52/47
f 41/48/43 42/52/47 45/53/48 43/54/49
f 33/42/37 41/48/43 43/54/49 31/40/35
f 31/40/35 43/54/49 44/55/50 94/41/36
f 43/54/49 45/53/48 46/56/51 44/55/50
f 47/57/52 45/53/48 42/52/47 49/58/53
f 50/59/54 46/56/51 45/53/48 47/57/52
f 51/60/55 50/59/54 47/57/52 48/61/56
f 48/61/56 47/57/52 49/58/53 114/62/57
f 54/63/58 52/64/59 50/59/54 51/60/55
f 52/64/59 53/65/60 46/56/51 50/59/54
f 55/66/61 57/67/62 53/65/60 52/64/59
f 56/68/63 55/66/61 52/64/59 54/63/58
f 59/69/64 58/70/65 55/66/61 56/68/63
f 58/70/65 60/71/66 57/67/62 55/66/61
f 63/72/67 61/73/68 58/70/65 59/69/64
f 61/73/68 62/74/69 60/71/66 58/70/65
f 64/75/70 66/76/71 62/74/69 61/73/68
f 65/77/72 64/75/70 61/73/68 63/72/67
f 68/78/73 67/79/74 64/75/70 65/77/72
f 67/79/74 69/80/75 66/76/71 64/75/70
f 71/81/76 70/82/77 67/79/74 68/78/73
f 70/82/77 72/83/78 69/80/75 67/79/74
f 75/84/79 73/85/80 70/82/77 71/81/76
f 73/85/80 74/86/81 72/83/78 70/82/77
f 76/87/82 78/88/83 74/86/81 73/89/80
f 77/90/84 76/87/82 73/89/80 75/91/79
f 80/92/85 79/93/86 76/87/82 77/90/84
f 79/93/86 81/94/87 78/88/83 76/87/82
f 83/95/88 82/96/89 79/93/86 80/92/85
f 82/96/89 84/97/90 81/94/87 79/93/86
f 95/35/30 26/34/29 82/96/89 83/95/88
f 26/34/29 28/36/31 84/97/90 82/96/89
f 28/36/31 30/39/34 85/98/91 84/97/90
f 84/97/90 85/98/91 87/99/92 81/94/87
f 30/39/34 94/41/36 86/100/93 85/98/91
f 85/98/91 86/100/93 88/101/94 87/99/92
f 78/88/83 81/94/87 87/99/92 89/102/95
f 87/99/92 88/101/94 90/103/96 89/102/95
f 78/88/83 89/102/95 72/83/78 74/86/81
f 89/102/95 90/103/96 69/80/75 72/83/78
f 90/103/96 91/104/97 66/76/71 69/80/75
f 88/101/94 92/105/98 91/104/97 90/103/96
f 91/104/97 60/71/66 62/74/69 66/76/71
f 92/105/98 57/67/62 60/71/66 91/104/97
f 86/100/93 93/106/99 92/105/98 88/101/94
f 93/106/99 53/65/60 57/67/62 92/105/98
f 94/41/36 44/55/50 93/106/99 86/100/93
f 44/55/50 46/56/51 53/65/60 93/106/99
f 95/107/30 83/108/88 96/109/100 99/110/101
f 83/108/88 80/111/85 98/112/102 96/109/100
f 99/110/101 96/109/100 97/113/103 100/114/104
f 96/109/100 98/112/102 111/115/105 97/113/103
f 101/116/106 99/110/101 100/114/104 103/117/107
f 25/118/28 95/107/30 99/110/101 101/116/106
f 102/119/108 101/116/106 103/117/107 104/120/109
f 23/121/23 25/118/28 101/116/106 102/119/108
f 104/120/109 103/117/107 105/122/110 106/123/111
f 103/117/107 100/114/104 107/124/112 105/122/110
f 106/123/111 105/122/110 48/61/56 114/62/57
f 105/122/110 107/124/112 51/60/55 48/61/56
f 107/124/112 108/125/113 54/63/58 51/60/55
f 100/114/104 97/113/103 108/125/113 107/124/112
f 97/113/103 111/115/105 109/126/114 108/125/113
f 108/125/113 109/126/114 56/68/63 54/63/58
f 109/126/114 110/127/115 59/69/64 56/68/63
f 111/115/105 112/128/116 110/127/115 109/126/114
f 111/115/105 98/112/102 113/129/117 112/128/116
f 113/129/117 71/130/76 68/131/73 112/128/116
f 112/128/116 68/131/73 65/132/72 110/127/115
f 98/112/102 80/111/85 77/133/84 113/129/117
f 77/133/84 75/134/79 71/130/76 113/129/117
f 110/127/115 65/132/72 63/72/67 59/69/64
f 106/123/111 114/62/57 116/135/118 115/136/119
f 104/120/109 106/123/111 115/136/119 118/137/120
f 115/136/119 116/135/118 161/138/121 117/139/122
f 118/137/120 115/136/119 117/139/122 119/140/123
f 102/119/108 104/120/109 118/137/120 120/141/124
f 120/141/124 118/137/120 119/140/123 121/142/125
f 23/121/23 102/119/108 120/141/124 19/143/20
f 19/143/20 120/141/124 121/142/125 16/144/17
f 121/142/125 119/140/123 123/145/126 122/146/127
f 16/144/17 121/142/125 122/146/127 13/147/14
f 13/147/14 122/146/127 124/148/128 10/149/11
f 122/146/127 123/145/126 125/150/129 124/148/128
f 125/150/129 127/151/130 126/6/5 124/148/128
f 124/148/128 126/6/5 2/5/1 10/149/11
f 126/6/5 127/151/130 128/152/131 3/7/6
f 127/151/130 129/153/132 131/154/133 128/152/131
f 125/150/129 132/155/134 129/153/132 127/151/130
f 129/153/132 130/156/135 143/157/136 131/154/133
f 132/155/134 134/158/137 130/156/135 129/153/132
f 133/159/138 135/160/139 134/158/137 132/155/134
f 123/145/126 133/159/138 132/155/134 125/150/129
f 130/156/135 134/158/137 136/161/140 139/162/141
f 134/158/137 135/160/139 137/163/142 136/161/140
f 136/161/140 137/163/142 157/164/143 138/165/144
f 139/162/141 136/161/140 138/165/144 140/166/145
f 143/157/136 130/156/135 139/162/141 141/167/146
f 141/167/146 139/162/141 140/166/145 142/168/147
f 144/169/148 141/167/146 142/168/147 145/170/149
f 131/171/133 143/157/136 141/167/146 144/169/148
f 128/172/131 131/171/133 144/169/148 146/173/150
f 146/173/150 144/169/148 145/170/149 147/174/151
f 3/10/6 128/172/131 146/173/150 6/11/7
f 6/11/7 146/173/150 147/174/151 148/15/10
f 149/175/152 147/174/151 145/170/149 151/176/153
f 152/177/154 148/15/10 147/174/151 149/175/152
f 153/178/155 152/177/154 149/175/152 150/179/156
f 150/179/156 149/175/152 151/176/153 158/180/157
f 8/14/9 5/13/8 148/15/10 152/177/154
f 8/14/9 152/177/154 153/178/155 11/18/13
f 14/21/16 11/18/13 153/178/155 154/181/158
f 154/181/158 153/178/155 150/179/156 155/182/159
f 17/24/19 14/21/16 154/181/158 35/45/40
f 35/45/40 154/181/158 155/182/159 37/46/41
f 155/182/159 150/179/156 158/180/157 156/183/160
f 37/46/41 155/182/159 156/183/160 39/49/44
f 156/183/160 158/180/157 138/165/144 157/164/143
f 39/49/44 156/183/160 157/164/143 159/50/45
f 158/180/157 151/176/153 140/166/145 138/165/144
f 137/163/142 160/184/161 159/50/45 157/164/143
f 160/184/161 162/185/162 40/51/46 159/50/45
f 135/160/139 161/138/121 160/184/161 137/163/142
f 161/138/121 116/135/118 162/185/162 160/184/161
f 116/135/118 114/62/57 49/58/53 162/185/162
f 162/185/162 49/58/53 42/52/47 40/51/46
f 117/139/122 161/138/121 135/160/139 133/159/138
f 151/176/153 145/170/149 142/168/147 140/166/145
f 119/140/123 117/139/122 133/159/138 123/145/126
