# Blender v2.79 (sub 0) OBJ File: 'PINTURA.blend'
# www.blender.org
mtllib BOT-A.mtl
o Cube.004
v 0.118730 0.765491 1.231438
v 0.118730 1.043808 1.231438
v 0.053168 0.714638 0.959993
v 0.053168 1.094661 0.959993
v 0.477546 0.765491 1.231438
v 0.477546 1.043808 1.231438
v 0.543108 0.714638 0.959993
v 0.543108 1.094661 0.959993
vt 0.793333 0.794811
vt 0.791219 0.801120
vt 0.778901 0.819412
vt 0.778901 0.779812
vt 0.810677 0.777682
vt 0.810677 0.817282
vt 0.796246 0.802284
vt 0.798359 0.795974
vn -0.9720 0.0000 0.2348
vn 0.9720 0.0000 0.2348
vn 0.0000 0.0000 1.0000
vn 0.0000 -0.9829 0.1841
vn 0.0000 0.9829 0.1841
usemtl None
s off
f 1/1/1 2/2/1 4/3/1 3/4/1
f 7/5/2 8/6/2 6/7/2 5/8/2
f 5/8/3 6/7/3 2/2/3 1/1/3
f 3/4/4 7/5/4 5/8/4 1/1/4
f 8/6/5 4/3/5 2/2/5 6/7/5
