# Blender v2.79 (sub 0) OBJ File: 'PINTURA.blend'
# www.blender.org
mtllib pintura.mtl
o Cube
v -1.380983 0.003341 1.000000
v -1.380983 1.274724 1.000000
v -1.380983 0.003341 -1.000000
v -1.380983 1.274724 -1.000000
v 0.779163 0.003341 1.000000
v 0.779163 1.274724 1.000000
v 0.779163 0.003341 -1.000000
v 0.779163 1.274724 -1.000000
v 3.241976 -0.006168 1.723732
v 3.241976 3.441297 1.723732
v 3.241976 -0.006168 -1.723732
v 3.241976 3.441297 -1.723732
v 6.689441 -0.006168 1.723732
v 6.689441 3.441297 1.723732
v 6.689441 -0.006168 -1.723732
v 6.689441 3.441297 -1.723732
v 3.673520 0.425377 1.723732
v 3.673520 3.009752 1.723732
v 6.257896 3.009752 1.723732
v 6.257896 0.425377 1.723732
v 3.816456 0.567834 1.723732
v 3.816456 2.872205 1.723732
v 6.114961 2.872205 1.723732
v 6.114961 0.567834 1.723732
v 6.187536 0.495737 1.777297
v 3.743881 0.495737 1.777297
v 3.743881 2.939392 1.777297
v 6.187536 2.939392 1.777297
v 3.344471 3.336640 1.621238
v 3.344471 3.336640 -1.621238
v 6.586946 3.336640 -1.621238
v 6.586946 3.336640 1.621238
v 3.344471 0.098352 1.621238
v 3.344471 0.098352 -1.621238
v 6.586946 0.098352 -1.621238
v 6.586946 0.098352 1.621238
v 6.114961 2.872205 1.621238
v 3.816456 2.872205 1.621238
v 6.114961 0.567834 1.621238
v 3.816456 0.567834 1.621238
v 0.144713 1.238683 -0.259649
v -0.038887 1.238683 -0.183599
v -0.114936 1.238683 0.000000
v -0.038887 1.238683 0.183600
v 0.144713 1.238683 0.259649
v 0.328312 1.238683 0.183599
v 0.404361 1.238683 0.000000
v 0.328312 1.238683 -0.183599
v 0.185345 1.660246 -0.259648
v 0.001746 1.660246 -0.183599
v -0.074303 1.660246 0.000000
v 0.001746 1.660246 0.183600
v 0.185345 1.660246 0.259649
v 0.368945 1.660246 0.183600
v 0.444994 1.660246 0.000000
v 0.368945 1.660246 -0.183599
v 0.347876 1.954833 -0.259648
v 0.211092 2.077303 -0.183599
v 0.154435 2.128032 0.000000
v 0.211092 2.077303 0.183600
v 0.347876 1.954833 0.259649
v 0.484659 1.832363 0.183600
v 0.541317 1.781634 0.000000
v 0.484659 1.832363 -0.183599
v 0.637383 2.061494 -0.259648
v 0.537819 2.215752 -0.183599
v 0.496579 2.279648 0.000000
v 0.537819 2.215752 0.183600
v 0.637383 2.061494 0.259649
v 0.736948 1.907235 0.183600
v 0.778188 1.843339 0.000000
v 0.736947 1.907235 -0.183599
v 1.196082 1.954833 -0.259648
v 1.229238 2.135414 -0.183599
v 1.242971 2.210213 0.000000
v 1.229238 2.135414 0.183600
v 1.196082 1.954833 0.259649
v 1.162927 1.774252 0.183600
v 1.149193 1.699453 0.000000
v 1.162927 1.774252 -0.183599
v 1.526223 1.848172 -0.259648
v 1.527019 2.031770 -0.183599
v 1.527348 2.107819 0.000000
v 1.527019 2.031770 0.183600
v 1.526223 1.848172 0.259649
v 1.525427 1.664575 0.183599
v 1.525097 1.588526 0.000000
v 1.525427 1.664575 -0.183599
v 1.988419 1.909121 -0.259648
v 1.956791 2.089976 -0.183599
v 1.943690 2.164888 0.000000
v 1.956791 2.089976 0.183600
v 1.988419 1.909121 0.259649
v 2.020047 1.728267 0.183599
v 2.033148 1.653354 0.000000
v 2.020047 1.728267 -0.183599
v 2.333796 2.112284 -0.259648
v 2.302168 2.293139 -0.183599
v 2.289067 2.368052 0.000000
v 2.302168 2.293139 0.183600
v 2.333796 2.112284 0.259649
v 2.365425 1.931430 0.183600
v 2.378525 1.856518 0.000000
v 2.365424 1.931430 -0.183599
v 2.826467 2.117363 -0.259648
v 2.826467 2.300636 -0.183599
v 2.826467 2.376550 0.000000
v 2.826467 2.300636 0.183600
v 2.826467 2.117363 0.259649
v 2.826467 1.934091 0.183599
v 2.826467 1.858177 0.000000
v 2.826467 1.934091 -0.183599
v 2.826467 2.117363 -0.345770
v 2.826467 2.361425 -0.244496
v 2.826467 2.462518 0.000000
v 2.826467 2.361425 0.244497
v 2.826467 2.117363 0.345771
v 2.826467 1.873302 0.244497
v 2.826467 1.772209 0.000000
v 2.826467 1.873303 -0.244496
v 3.268347 2.117363 -0.345770
v 3.268347 2.361425 -0.244496
v 3.268347 2.462518 0.000000
v 3.268347 2.361425 0.244497
v 3.268347 2.117363 0.345771
v 3.268347 1.873302 0.244497
v 3.268347 1.772209 0.000000
v 3.268347 1.873303 -0.244496
v 0.949434 1.822671 0.000000
v 0.950270 1.893364 -0.183599
v 0.952287 2.064033 0.259649
v 0.950270 1.893364 0.183600
v 0.955138 2.305395 0.000000
v 0.954303 2.234702 0.183600
v 0.952286 2.064033 -0.259648
v 0.954303 2.234702 -0.183599
v 2.826467 2.300636 -0.183599
v 2.826467 2.117363 -0.259648
v 2.826467 2.376550 0.000000
v 2.826467 2.300636 0.183600
v 2.826467 2.117363 0.259649
v 2.826467 1.934091 0.183599
v 2.826467 1.858177 0.000000
v 2.826467 1.934091 -0.183599
v 2.826467 2.361425 -0.244496
v 2.826467 2.117363 -0.345770
v 2.826467 2.462518 0.000000
v 2.826467 2.361425 0.244497
v 2.826467 2.117363 0.345771
v 2.826467 1.873302 0.244497
v 2.826467 1.772209 0.000000
v 2.826467 1.873303 -0.244496
vt 0.850946 0.735032
vt 0.850946 0.660433
vt 0.968296 0.660433
vt 0.968296 0.735032
vt 0.658996 0.660433
vt 0.584397 0.660433
vt 0.584397 0.590211
vt 0.658996 0.590211
vt 0.968296 0.515612
vt 0.968296 0.590211
vt 0.850946 0.590211
vt 0.850946 0.515612
vt 0.776347 0.590211
vt 0.776347 0.660433
vt 0.203214 0.195797
vt 0.007648 0.195797
vt 0.007647 0.000230
vt 0.203214 0.000230
vt 0.420248 0.191581
vt 0.637283 0.187366
vt 0.639618 0.307611
vt 0.422584 0.311827
vt 0.201695 0.515152
vt 0.002585 0.511297
vt 0.006440 0.312187
vt 0.205550 0.316042
vt 0.032561 0.209491
vt 0.032203 0.299044
vt 0.172221 0.213156
vt 0.174247 0.297953
vt 0.169357 0.294275
vt 0.166934 0.216885
vt 0.179744 0.301713
vt 0.177357 0.209420
vt 0.037811 0.213092
vt 0.042055 0.216243
vt 0.037352 0.295379
vt 0.042157 0.292096
vt 0.872281 0.467961
vt 0.654176 0.467961
vt 0.675755 0.347834
vt 0.853471 0.354650
vt 0.672160 0.234326
vt 0.864952 0.241396
vt 0.861012 0.348839
vt 0.668219 0.341768
vt 0.436530 0.719568
vt 0.583937 0.682107
vt 0.550675 0.706223
vt 0.450352 0.725814
vt 0.000230 0.799986
vt 0.002172 0.653193
vt 0.275332 0.656806
vt 0.273390 0.803599
vt 0.583937 0.803306
vt 0.437761 0.999770
vt 0.431357 0.771806
vt 0.446986 0.515612
vt 0.161728 0.223470
vt 0.046709 0.220695
vt 0.449283 0.763984
vt 0.549005 0.780431
vt 0.049535 0.285159
vt 0.162241 0.289131
vt 0.590620 0.754096
vt 0.615044 0.760235
vt 0.612195 0.766821
vt 0.588590 0.761339
vt 0.586746 0.768705
vt 0.609760 0.772976
vt 0.607870 0.782325
vt 0.585091 0.779958
vt 0.584397 0.791311
vt 0.607798 0.791863
vt 0.608914 0.798388
vt 0.584686 0.798898
vt 0.610349 0.805419
vt 0.585183 0.806405
vt 0.593254 0.743360
vt 0.617695 0.748958
vt 0.610623 0.817001
vt 0.585554 0.817453
vt 0.624897 0.797525
vt 0.621800 0.805842
vt 0.625737 0.749932
vt 0.626338 0.762175
vt 0.627659 0.770951
vt 0.628699 0.777626
vt 0.628486 0.784468
vt 0.627287 0.791207
vt 0.618695 0.817701
vt 0.636511 0.778873
vt 0.635998 0.785248
vt 0.635189 0.791592
vt 0.633856 0.798986
vt 0.631553 0.809052
vt 0.634677 0.748812
vt 0.636542 0.761039
vt 0.636726 0.771364
vt 0.627213 0.820635
vt 0.638594 0.812560
vt 0.645928 0.820444
vt 0.640074 0.831502
vt 0.632298 0.823920
vt 0.644153 0.759054
vt 0.652952 0.752847
vt 0.653460 0.764898
vt 0.645212 0.770337
vt 0.644980 0.778800
vt 0.653187 0.776379
vt 0.652419 0.786954
vt 0.644208 0.786101
vt 0.643463 0.793405
vt 0.650996 0.797462
vt 0.648904 0.808755
vt 0.641949 0.801735
vt 0.640327 0.746642
vt 0.649496 0.740822
vt 0.665549 0.759307
vt 0.665504 0.773198
vt 0.664816 0.788242
vt 0.662397 0.803107
vt 0.656624 0.828411
vt 0.652917 0.839646
vt 0.665057 0.747248
vt 0.659585 0.816711
vt 0.663738 0.735493
vt 0.676683 0.818451
vt 0.672801 0.830026
vt 0.682117 0.736537
vt 0.681219 0.748993
vt 0.682639 0.761119
vt 0.683907 0.774998
vt 0.682867 0.790118
vt 0.680777 0.805129
vt 0.671120 0.842401
vt 0.697800 0.756915
vt 0.698999 0.770380
vt 0.700491 0.781809
vt 0.700354 0.791934
vt 0.698407 0.801872
vt 0.694598 0.812750
vt 0.690657 0.825682
vt 0.699024 0.743271
vt 0.689050 0.839287
vt 0.707611 0.829572
vt 0.705085 0.842401
vt 0.715191 0.756592
vt 0.715976 0.768840
vt 0.717188 0.780964
vt 0.717210 0.793685
vt 0.714575 0.806129
vt 0.710897 0.817747
vt 0.715355 0.743518
vt 0.659399 0.501191
vt 0.657472 0.505852
vt 0.646481 0.494889
vt 0.651146 0.492958
vt 0.651131 0.481315
vt 0.646461 0.479385
vt 0.657425 0.468421
vt 0.659364 0.473083
vt 0.671021 0.473083
vt 0.672948 0.468421
vt 0.683939 0.479385
vt 0.679274 0.481315
vt 0.671056 0.501191
vt 0.672996 0.505852
vt 0.683959 0.494889
vt 0.679289 0.492958
vt 0.760763 0.794615
vt 0.754951 0.777697
vt 0.762429 0.769868
vt 0.778441 0.777499
vt 0.761353 0.759203
vt 0.777977 0.752720
vt 0.759898 0.735832
vt 0.752413 0.752183
vt 0.741021 0.752347
vt 0.735395 0.735493
vt 0.717670 0.752595
vt 0.733703 0.760189
vt 0.734909 0.770926
vt 0.718167 0.777395
vt 0.736015 0.794615
vt 0.743576 0.778313
vn -1.0000 0.0000 0.0000
vn 0.0000 0.0000 -1.0000
vn 1.0000 0.0000 0.0000
vn 0.0000 0.0000 1.0000
vn 0.0000 -1.0000 0.0000
vn 0.0000 1.0000 0.0000
vn 0.0000 0.5964 0.8027
vn 0.5938 0.0000 0.8046
vn 0.0000 -0.6234 0.7819
vn -0.5938 0.0000 0.8046
vn 0.6057 0.0000 0.7957
vn 0.0000 0.6057 0.7957
vn -0.6057 0.0000 0.7957
vn 0.0000 -0.6057 0.7957
vn 0.6934 -0.0668 0.7174
vn 0.6392 -0.2317 0.7332
vn -0.0478 0.0250 0.9985
vn -0.0234 0.0022 0.9997
vn -0.7167 0.0691 0.6939
vn -0.7038 0.2039 0.6805
vn -0.9648 0.2630 0.0000
vn -0.9954 0.0959 0.0000
vn -0.7167 0.0691 -0.6939
vn -0.7038 0.2039 -0.6805
vn -0.0478 0.0250 -0.9985
vn -0.0234 0.0022 -0.9997
vn 0.6392 -0.2317 -0.7332
vn 0.6934 -0.0668 -0.7174
vn 0.9954 -0.0959 0.0000
vn 0.9268 -0.3756 0.0000
vn -0.0551 0.0642 -0.9964
vn 0.3952 -0.5399 -0.7431
vn 0.5554 -0.8315 0.0000
vn 0.3952 -0.5399 0.7431
vn -0.0551 0.0642 0.9964
vn -0.5110 0.5429 0.6664
vn -0.6943 0.7197 0.0000
vn -0.5110 0.5429 -0.6664
vn -0.1637 0.7249 0.6691
vn -0.2421 0.9702 0.0000
vn -0.1637 0.7249 -0.6691
vn -0.0014 0.0441 -0.9990
vn 0.0776 -0.7071 -0.7028
vn 0.0703 -0.9975 0.0000
vn 0.0776 -0.7071 0.7028
vn -0.0014 0.0441 0.9990
vn -0.2002 -0.6767 -0.7085
vn -0.2902 -0.6757 -0.6776
vn -0.3935 -0.9193 0.0000
vn -0.3198 -0.9475 0.0000
vn -0.2002 -0.6767 0.7085
vn -0.2902 -0.6757 0.6776
vn -0.0152 -0.0121 0.9998
vn 0.0067 0.0518 0.9986
vn 0.1103 0.7380 0.6657
vn 0.2417 0.6779 0.6942
vn 0.3300 0.9440 0.0000
vn 0.1344 0.9909 0.0000
vn 0.1103 0.7380 -0.6657
vn 0.2417 0.6779 -0.6942
vn -0.0152 -0.0121 -0.9998
vn 0.0067 0.0518 -0.9986
vn -0.0078 -0.0533 0.9985
vn 0.0680 0.6706 0.7387
vn 0.1081 0.9941 0.0000
vn 0.0680 0.6706 -0.7387
vn -0.0606 -0.7265 -0.6844
vn -0.0776 -0.9970 0.0000
vn -0.0606 -0.7265 0.6844
vn -0.0078 -0.0533 -0.9985
vn 0.0237 -0.0450 -0.9987
vn 0.2387 -0.6933 -0.6799
vn 0.3169 -0.9485 0.0000
vn 0.2387 -0.6933 0.6799
vn 0.0237 -0.0450 0.9987
vn -0.2259 0.6474 0.7279
vn -0.3351 0.9421 0.0000
vn -0.2259 0.6474 -0.7279
vn 0.1808 -0.6482 0.7397
vn -0.0240 0.0598 0.9979
vn -0.2001 0.7086 0.6766
vn -0.2646 0.9644 0.0000
vn -0.2001 0.7086 -0.6766
vn -0.0240 0.0598 -0.9979
vn 0.1808 -0.6482 -0.7397
vn 0.2715 -0.9624 0.0000
vn 0.0041 -0.7083 -0.7058
vn 0.0047 -1.0000 0.0000
vn 0.0041 -0.7083 0.7058
vn -0.0009 0.0024 1.0000
vn -0.0101 0.7106 0.7035
vn -0.0150 0.9999 0.0000
vn -0.0101 0.7106 -0.7035
vn -0.0009 0.0024 -1.0000
vn 0.0000 0.7075 -0.7067
vn 0.0000 -0.7075 -0.7067
vn 0.0000 -0.7075 0.7067
vn 0.0000 0.7075 0.7067
usemtl None
s off
f 1/1/1 2/2/1 4/3/1 3/4/1
f 3/5/2 4/6/2 8/7/2 7/8/2
f 7/9/3 8/10/3 6/11/3 5/12/3
f 5/13/4 6/11/4 2/2/4 1/14/4
f 3/5/5 7/8/5 5/13/5 1/14/5
f 8/10/6 4/3/6 2/2/6 6/11/6
f 9/15/1 10/16/1 12/17/1 11/18/1
f 11/19/2 12/20/2 16/21/2 15/22/2
f 15/23/3 16/24/3 14/25/3 13/26/3
f 14/25/4 10/16/4 18/27/4 19/28/4
f 11/19/5 15/22/5 13/26/5 9/15/5
f 26/29/7 25/30/7 24/31/7 21/32/7
f 13/26/4 14/25/4 19/28/4 20/33/4
f 10/16/4 9/15/4 17/34/4 18/27/4
f 9/15/4 13/26/4 20/33/4 17/34/4
f 27/35/8 26/29/8 21/32/8 22/36/8
f 28/37/9 27/35/9 22/36/9 23/38/9
f 25/30/10 28/37/10 23/38/10 24/31/10
f 20/33/11 19/28/11 28/37/11 25/30/11
f 19/28/12 18/27/12 27/35/12 28/37/12
f 18/27/13 17/34/13 26/29/13 27/35/13
f 17/34/14 20/33/14 25/30/14 26/29/14
f 31/39/5 32/40/5 29/41/5 30/42/5
f 14/43/6 16/44/6 12/45/6 10/46/6
f 33/47/2 29/48/2 38/49/2 40/50/2
f 31/51/4 30/52/4 34/53/4 35/54/4
f 32/55/1 31/56/1 35/54/1 36/57/1
f 30/58/3 29/48/3 33/47/3 34/53/3
f 33/47/6 36/57/6 35/54/6 34/53/6
f 22/36/3 21/32/3 40/59/3 38/60/3
f 36/57/2 33/47/2 40/50/2 39/61/2
f 29/48/2 32/55/2 37/62/2 38/49/2
f 32/55/2 36/57/2 39/61/2 37/62/2
f 22/36/5 38/60/5 37/63/5 23/38/5
f 24/31/1 23/38/1 37/63/1 39/64/1
f 21/32/6 24/31/6 39/64/6 40/59/6
s 1
f 46/65/15 54/66/16 53/67/17 45/68/18
f 44/69/19 52/70/20 51/71/21 43/72/22
f 42/73/23 50/74/24 49/75/25 41/76/26
f 41/76/26 49/75/25 56/77/27 48/78/28
f 47/79/29 55/80/30 54/66/16 46/65/15
f 45/68/18 53/67/17 52/70/20 44/69/19
f 43/72/22 51/71/21 50/74/24 42/73/23
f 48/78/28 56/77/27 55/81/30 47/82/29
f 49/75/25 57/83/31 64/84/32 56/77/27
f 55/80/30 63/85/33 62/86/34 54/66/16
f 53/67/17 61/87/35 60/88/36 52/70/20
f 51/71/21 59/89/37 58/90/38 50/74/24
f 56/77/27 64/84/32 63/91/33 55/81/30
f 54/66/16 62/86/34 61/87/35 53/67/17
f 52/70/20 60/88/36 59/89/37 51/71/21
f 50/74/24 58/90/38 57/83/31 49/75/25
f 60/88/36 68/92/39 67/93/40 59/89/37
f 58/90/38 66/94/41 65/95/42 57/83/31
f 57/83/31 65/95/42 72/96/43 64/84/32
f 63/85/33 71/97/44 70/98/45 62/86/34
f 61/87/35 69/99/46 68/92/39 60/88/36
f 59/89/37 67/93/40 66/94/41 58/90/38
f 64/84/32 72/96/43 71/100/44 63/91/33
f 62/86/34 70/98/45 69/99/46 61/87/35
f 130/101/47 80/102/48 79/103/49 129/104/50
f 132/105/51 78/106/52 77/107/53 131/108/54
f 134/109/55 76/110/56 75/111/57 133/112/58
f 136/113/59 74/114/60 73/115/61 135/116/62
f 135/116/62 73/115/61 80/102/48 130/101/47
f 129/117/50 79/118/49 78/106/52 132/105/51
f 131/108/54 77/107/53 76/110/56 134/109/55
f 133/112/58 75/111/57 74/114/60 136/113/59
f 77/107/53 85/119/63 84/120/64 76/110/56
f 75/111/57 83/121/65 82/122/66 74/114/60
f 80/102/48 88/123/67 87/124/68 79/103/49
f 78/106/52 86/125/69 85/119/63 77/107/53
f 76/110/56 84/120/64 83/121/65 75/111/57
f 74/114/60 82/122/66 81/126/70 73/115/61
f 73/115/61 81/126/70 88/123/67 80/102/48
f 79/118/49 87/127/68 86/125/69 78/106/52
f 81/126/70 89/128/71 96/129/72 88/123/67
f 87/127/68 95/130/73 94/131/74 86/125/69
f 85/119/63 93/132/75 92/133/76 84/120/64
f 83/121/65 91/134/77 90/135/78 82/122/66
f 88/123/67 96/129/72 95/136/73 87/124/68
f 86/125/69 94/131/74 93/132/75 85/119/63
f 84/120/64 92/133/76 91/134/77 83/121/65
f 82/122/66 90/135/78 89/128/71 81/126/70
f 94/131/74 102/137/79 101/138/80 93/132/75
f 92/133/76 100/139/81 99/140/82 91/134/77
f 90/135/78 98/141/83 97/142/84 89/128/71
f 89/128/71 97/142/84 104/143/85 96/129/72
f 95/130/73 103/144/86 102/137/79 94/131/74
f 93/132/75 101/138/80 100/139/81 92/133/76
f 91/134/77 99/140/82 98/141/83 90/135/78
f 96/129/72 104/143/85 103/145/86 95/136/73
f 104/143/85 144/146/87 143/147/88 103/145/86
f 102/137/79 142/148/89 141/149/90 101/138/80
f 100/139/81 140/150/91 139/151/92 99/140/82
f 98/141/83 137/152/93 138/153/94 97/142/84
f 97/142/84 138/153/94 144/146/87 104/143/85
f 103/144/86 143/154/88 142/148/89 102/137/79
f 101/138/80 141/149/90 140/150/91 100/139/81
f 99/140/82 139/151/92 137/152/93 98/141/83
f 111/155/1 151/156/1 150/157/1 110/158/1
f 109/159/1 149/160/1 148/161/1 108/162/1
f 107/163/1 147/164/1 145/165/1 106/166/1
f 112/167/1 152/168/1 151/156/1 111/155/1
f 110/158/1 150/157/1 149/160/1 109/159/1
f 108/162/1 148/161/1 147/164/1 107/163/1
f 106/166/1 145/165/1 146/169/1 105/170/1
f 105/170/1 146/169/1 152/168/1 112/167/1
f 114/171/95 122/172/95 121/173/2 113/174/2
f 113/174/2 121/173/2 128/175/96 120/176/96
f 119/177/5 127/178/5 126/179/97 118/180/97
f 117/181/4 125/182/4 124/183/98 116/184/98
f 115/185/6 123/186/6 122/172/95 114/171/95
f 120/176/96 128/175/96 127/178/5 119/177/5
f 118/180/97 126/179/97 125/182/4 117/181/4
f 116/184/98 124/183/98 123/186/6 115/185/6
f 67/93/40 133/112/58 136/113/59 66/94/41
f 69/99/46 131/108/54 134/109/55 68/92/39
f 71/97/44 129/117/50 132/105/51 70/98/45
f 65/95/42 135/116/62 130/101/47 72/96/43
f 66/94/41 136/113/59 135/116/62 65/95/42
f 68/92/39 134/109/55 133/112/58 67/93/40
f 70/98/45 132/105/51 131/108/54 69/99/46
f 72/96/43 130/101/47 129/104/50 71/100/44
