# Blender v2.79 (sub 0) OBJ File: 'FONDO.blend'
# www.blender.org
mtllib BOT-V.mtl
o Cube.006_Cube.007
v -16.157055 0.594661 2.899673
v -16.157055 0.214638 2.899673
v -16.222616 0.543808 3.171118
v -16.222616 0.265491 3.171118
v -16.646996 0.594661 2.899673
v -16.646996 0.214638 2.899673
v -16.581432 0.543808 3.171118
v -16.581432 0.265491 3.171118
vt 0.716655 0.470551
vt 0.748430 0.468421
vt 0.736112 0.486713
vt 0.731086 0.485550
vt 0.728973 0.491859
vt 0.716655 0.510151
vt 0.733999 0.493023
vt 0.748430 0.508021
vn 0.0000 -0.9829 0.1841
vn -0.9720 0.0000 0.2348
vn 0.0000 0.0000 1.0000
vn 0.0000 0.9829 0.1841
vn 0.9720 0.0000 0.2348
usemtl fondo
s off
f 6/1/1 2/2/1 4/3/1 8/4/1
f 8/4/2 7/5/2 5/6/2 6/1/2
f 4/3/3 3/7/3 7/5/3 8/4/3
f 1/8/4 5/6/4 7/5/4 3/7/4
f 2/2/5 1/8/5 3/7/5 4/3/5
