# Blender v2.79 (sub 0) OBJ File: 'FONDO.blend'
# www.blender.org
mtllib pintura.mtl
o Cube
v -17.481146 0.003341 2.939680
v -17.481146 1.274724 2.939680
v -17.481146 0.003341 0.939680
v -17.481146 1.274724 0.939680
v -15.321000 0.003341 2.939680
v -15.321000 1.274724 2.939680
v -15.321000 0.003341 0.939680
v -15.321000 1.274724 0.939680
v -12.858187 -0.006168 3.663413
v -12.858187 3.441297 3.663413
v -12.858187 -0.006168 0.215948
v -12.858187 3.441297 0.215948
v -9.410722 -0.006168 3.663413
v -9.410722 3.441297 3.663413
v -9.410722 -0.006168 0.215948
v -9.410722 3.441297 0.215948
v -12.426642 0.425377 3.663413
v -12.426642 3.009752 3.663413
v -9.842266 3.009752 3.663413
v -9.842266 0.425377 3.663413
v -12.283707 0.567834 3.663413
v -12.283707 2.872205 3.663413
v -9.985202 2.872205 3.663413
v -9.985202 0.567834 3.663413
v -9.912626 0.495737 3.716977
v -12.356281 0.495737 3.716977
v -12.356281 2.939392 3.716977
v -9.912626 2.939392 3.716977
v -12.755692 3.336640 3.560918
v -12.755692 3.336640 0.318442
v -9.513216 3.336640 0.318442
v -9.513216 3.336640 3.560918
v -12.755692 0.098352 3.560918
v -12.755692 0.098352 0.318442
v -9.513216 0.098352 0.318442
v -9.513216 0.098352 3.560918
v -9.985202 2.872205 3.560918
v -12.283707 2.872205 3.560918
v -9.985202 0.567834 3.560918
v -12.283707 0.567834 3.560918
v -15.955450 1.238683 1.680032
v -16.139050 1.238683 1.756081
v -16.215099 1.238683 1.939680
v -16.139050 1.238683 2.123280
v -15.955450 1.238683 2.199329
v -15.771851 1.238683 2.123280
v -15.695801 1.238683 1.939680
v -15.771851 1.238683 1.756081
v -15.914817 1.660246 1.680032
v -16.098417 1.660246 1.756081
v -16.174465 1.660246 1.939680
v -16.098417 1.660246 2.123280
v -15.914817 1.660246 2.199329
v -15.731218 1.660246 2.123280
v -15.655169 1.660246 1.939680
v -15.731218 1.660246 1.756081
v -15.752287 1.954833 1.680032
v -15.889071 2.077303 1.756081
v -15.945728 2.128032 1.939680
v -15.889071 2.077303 2.123280
v -15.752287 1.954833 2.199329
v -15.615503 1.832363 2.123280
v -15.558846 1.781634 1.939680
v -15.615503 1.832363 1.756081
v -15.462779 2.061494 1.680032
v -15.562344 2.215752 1.756081
v -15.603584 2.279648 1.939680
v -15.562344 2.215752 2.123280
v -15.462779 2.061494 2.199329
v -15.363214 1.907235 2.123280
v -15.321974 1.843339 1.939680
v -15.363215 1.907235 1.756081
v -14.904080 1.954833 1.680032
v -14.870924 2.135414 1.756081
v -14.857191 2.210213 1.939680
v -14.870924 2.135414 2.123280
v -14.904080 1.954833 2.199329
v -14.937236 1.774252 2.123280
v -14.950969 1.699453 1.939680
v -14.937236 1.774252 1.756081
v -14.573940 1.848172 1.680032
v -14.573144 2.031770 1.756081
v -14.572814 2.107819 1.939680
v -14.573144 2.031770 2.123280
v -14.573940 1.848172 2.199329
v -14.574736 1.664575 2.123280
v -14.575066 1.588526 1.939680
v -14.574736 1.664575 1.756081
v -14.111744 1.909121 1.680032
v -14.143372 2.089976 1.756081
v -14.156473 2.164888 1.939680
v -14.143372 2.089976 2.123280
v -14.111744 1.909121 2.199329
v -14.080115 1.728267 2.123280
v -14.067015 1.653354 1.939680
v -14.080115 1.728267 1.756081
v -13.766366 2.112284 1.680032
v -13.797995 2.293139 1.756081
v -13.811095 2.368052 1.939680
v -13.797995 2.293139 2.123280
v -13.766366 2.112284 2.199329
v -13.734737 1.931430 2.123280
v -13.721637 1.856518 1.939680
v -13.734738 1.931430 1.756081
v -13.273695 2.117363 1.680032
v -13.273695 2.300636 1.756081
v -13.273695 2.376550 1.939680
v -13.273695 2.300636 2.123280
v -13.273695 2.117363 2.199329
v -13.273695 1.934091 2.123280
v -13.273695 1.858177 1.939680
v -13.273695 1.934091 1.756081
v -13.273695 2.117363 1.593910
v -13.273695 2.361425 1.695184
v -13.273695 2.462518 1.939680
v -13.273695 2.361425 2.184177
v -13.273695 2.117363 2.285451
v -13.273695 1.873302 2.184177
v -13.273695 1.772209 1.939680
v -13.273695 1.873303 1.695184
v -12.831816 2.117363 1.593910
v -12.831816 2.361425 1.695184
v -12.831816 2.462518 1.939680
v -12.831816 2.361425 2.184177
v -12.831816 2.117363 2.285451
v -12.831816 1.873302 2.184177
v -12.831816 1.772209 1.939680
v -12.831816 1.873303 1.695184
v -15.150728 1.822671 1.939680
v -15.149893 1.893364 1.756081
v -15.147876 2.064033 2.199329
v -15.149893 1.893364 2.123280
v -15.145024 2.305395 1.939680
v -15.145860 2.234702 2.123280
v -15.147876 2.064033 1.680032
v -15.145860 2.234702 1.756081
v -13.273695 2.300636 1.756081
v -13.273695 2.117363 1.680032
v -13.273695 2.376550 1.939680
v -13.273695 2.300636 2.123280
v -13.273695 2.117363 2.199329
v -13.273695 1.934091 2.123280
v -13.273695 1.858177 1.939680
v -13.273695 1.934091 1.756081
v -13.273695 2.361425 1.695184
v -13.273695 2.117363 1.593910
v -13.273695 2.462518 1.939680
v -13.273695 2.361425 2.184177
v -13.273695 2.117363 2.285451
v -13.273695 1.873302 2.184177
v -13.273695 1.772209 1.939680
v -13.273695 1.873303 1.695184
vt 0.925516 0.367821
vt 0.925516 0.330521
vt 0.984192 0.330521
vt 0.984192 0.367820
vt 0.829542 0.330521
vt 0.792242 0.330521
vt 0.792242 0.295410
vt 0.829542 0.295410
vt 0.984192 0.258110
vt 0.984192 0.295410
vt 0.925516 0.295410
vt 0.925516 0.258110
vt 0.888217 0.295410
vt 0.888217 0.330521
vt 0.601651 0.098203
vt 0.503867 0.098203
vt 0.503867 0.000419
vt 0.601651 0.000419
vt 0.710168 0.096095
vt 0.818685 0.093987
vt 0.819853 0.154110
vt 0.711336 0.156218
vt 0.600891 0.257880
vt 0.501336 0.255953
vt 0.503264 0.156398
vt 0.602818 0.158325
vt 0.516324 0.105050
vt 0.516145 0.149826
vt 0.586154 0.106882
vt 0.587167 0.149281
vt 0.584722 0.147442
vt 0.583511 0.108747
vt 0.589916 0.151161
vt 0.588722 0.105014
vt 0.518949 0.106850
vt 0.521071 0.108426
vt 0.518720 0.147994
vt 0.521122 0.146352
vt 0.936184 0.234285
vt 0.827131 0.234285
vt 0.837921 0.174221
vt 0.926779 0.177630
vt 0.836123 0.117467
vt 0.932520 0.121003
vt 0.930549 0.174724
vt 0.834153 0.171188
vt 0.718309 0.360088
vt 0.792012 0.341358
vt 0.775381 0.353416
vt 0.725220 0.363211
vt 0.500159 0.400297
vt 0.501129 0.326901
vt 0.637710 0.328707
vt 0.636739 0.402104
vt 0.792012 0.401957
vt 0.718924 0.500189
vt 0.715722 0.386207
vt 0.723537 0.258110
vt 0.580908 0.112040
vt 0.523398 0.110652
vt 0.724685 0.382296
vt 0.774546 0.390520
vt 0.524811 0.142884
vt 0.581164 0.144870
vt 0.795354 0.377352
vt 0.807566 0.380422
vt 0.806141 0.383715
vt 0.794338 0.380974
vt 0.793417 0.384657
vt 0.804924 0.386792
vt 0.803979 0.391467
vt 0.792589 0.390283
vt 0.792242 0.395960
vt 0.803942 0.396236
vt 0.804501 0.399498
vt 0.792387 0.399753
vt 0.805218 0.403014
vt 0.792635 0.403507
vt 0.796671 0.371984
vt 0.808891 0.374783
vt 0.805355 0.408805
vt 0.792821 0.409031
vt 0.812492 0.399067
vt 0.810944 0.403226
vt 0.812912 0.375270
vt 0.813213 0.381392
vt 0.813873 0.385780
vt 0.814393 0.389117
vt 0.814287 0.392538
vt 0.813687 0.395908
vt 0.809391 0.409155
vt 0.818299 0.389741
vt 0.818043 0.392928
vt 0.817638 0.396101
vt 0.816972 0.399797
vt 0.815820 0.404830
vt 0.817382 0.374710
vt 0.818315 0.380824
vt 0.818407 0.385986
vt 0.813650 0.410622
vt 0.819340 0.406584
vt 0.823008 0.410526
vt 0.820081 0.416055
vt 0.816192 0.412264
vt 0.822120 0.379831
vt 0.826519 0.376728
vt 0.826774 0.382753
vt 0.822649 0.385473
vt 0.822534 0.389704
vt 0.826637 0.388494
vt 0.826253 0.393782
vt 0.822148 0.393355
vt 0.821775 0.397007
vt 0.825542 0.399035
vt 0.824495 0.404682
vt 0.821018 0.401172
vt 0.820207 0.373625
vt 0.824791 0.370715
vt 0.832818 0.379958
vt 0.832796 0.386903
vt 0.832452 0.394425
vt 0.831242 0.401858
vt 0.828356 0.414510
vt 0.826502 0.420127
vt 0.832572 0.373929
vt 0.829836 0.408660
vt 0.831912 0.368051
vt 0.838385 0.409530
vt 0.836444 0.415317
vt 0.841102 0.368573
vt 0.840653 0.374801
vt 0.841363 0.380864
vt 0.841997 0.387803
vt 0.841477 0.395363
vt 0.840432 0.402869
vt 0.835604 0.421505
vt 0.848943 0.378762
vt 0.849543 0.385494
vt 0.850289 0.391209
vt 0.850221 0.396271
vt 0.849247 0.401240
vt 0.847343 0.406679
vt 0.845372 0.413145
vt 0.849555 0.371940
vt 0.844569 0.419948
vt 0.853849 0.415090
vt 0.852586 0.421505
vt 0.857639 0.378600
vt 0.858032 0.384724
vt 0.858638 0.390786
vt 0.858649 0.397147
vt 0.857331 0.403369
vt 0.855492 0.409178
vt 0.857721 0.372063
vt 0.829743 0.250900
vt 0.828779 0.253230
vt 0.823284 0.247749
vt 0.825616 0.246783
vt 0.825609 0.240962
vt 0.823274 0.239997
vt 0.828756 0.234515
vt 0.829725 0.236846
vt 0.835554 0.236846
vt 0.836518 0.234515
vt 0.842013 0.239997
vt 0.839681 0.240962
vt 0.835572 0.250900
vt 0.836541 0.253230
vt 0.842023 0.247749
vt 0.839688 0.246783
vt 0.880425 0.397612
vt 0.877519 0.389153
vt 0.881258 0.385238
vt 0.889264 0.389054
vt 0.880720 0.379906
vt 0.889032 0.376664
vt 0.879993 0.368220
vt 0.876250 0.376396
vt 0.870554 0.376478
vt 0.867741 0.368051
vt 0.858879 0.376602
vt 0.866895 0.380399
vt 0.867498 0.385767
vt 0.859127 0.389002
vt 0.868051 0.397612
vt 0.871832 0.389461
vn -1.0000 0.0000 0.0000
vn 0.0000 0.0000 -1.0000
vn 1.0000 0.0000 0.0000
vn 0.0000 0.0000 1.0000
vn 0.0000 -1.0000 0.0000
vn 0.0000 1.0000 0.0000
vn 0.0000 0.5964 0.8027
vn 0.5938 0.0000 0.8046
vn 0.0000 -0.6234 0.7819
vn -0.5938 0.0000 0.8046
vn 0.6057 0.0000 0.7957
vn 0.0000 0.6057 0.7957
vn -0.6057 0.0000 0.7957
vn 0.0000 -0.6057 0.7957
vn 0.6934 -0.0668 0.7174
vn 0.6392 -0.2317 0.7332
vn -0.0478 0.0250 0.9985
vn -0.0234 0.0022 0.9997
vn -0.7167 0.0691 0.6939
vn -0.7038 0.2039 0.6805
vn -0.9648 0.2630 0.0000
vn -0.9954 0.0959 0.0000
vn -0.7167 0.0691 -0.6939
vn -0.7038 0.2039 -0.6805
vn -0.0478 0.0250 -0.9985
vn -0.0234 0.0022 -0.9997
vn 0.6392 -0.2317 -0.7332
vn 0.6934 -0.0668 -0.7174
vn 0.9954 -0.0959 0.0000
vn 0.9268 -0.3756 0.0000
vn -0.0551 0.0642 -0.9964
vn 0.3952 -0.5399 -0.7431
vn 0.5554 -0.8315 0.0000
vn 0.3952 -0.5399 0.7431
vn -0.0551 0.0642 0.9964
vn -0.5110 0.5429 0.6664
vn -0.6943 0.7197 0.0000
vn -0.5110 0.5429 -0.6664
vn -0.1637 0.7249 0.6691
vn -0.2421 0.9702 0.0000
vn -0.1637 0.7249 -0.6691
vn -0.0014 0.0441 -0.9990
vn 0.0776 -0.7071 -0.7028
vn 0.0703 -0.9975 0.0000
vn 0.0776 -0.7071 0.7028
vn -0.0014 0.0441 0.9990
vn -0.2002 -0.6767 -0.7085
vn -0.2902 -0.6757 -0.6776
vn -0.3935 -0.9193 0.0000
vn -0.3198 -0.9475 0.0000
vn -0.2002 -0.6767 0.7085
vn -0.2902 -0.6757 0.6776
vn -0.0152 -0.0121 0.9998
vn 0.0067 0.0518 0.9986
vn 0.1103 0.7380 0.6657
vn 0.2417 0.6779 0.6942
vn 0.3300 0.9440 0.0000
vn 0.1344 0.9909 0.0000
vn 0.1103 0.7380 -0.6657
vn 0.2417 0.6779 -0.6942
vn -0.0152 -0.0121 -0.9998
vn 0.0067 0.0518 -0.9986
vn -0.0078 -0.0533 0.9985
vn 0.0680 0.6706 0.7387
vn 0.1081 0.9941 0.0000
vn 0.0680 0.6706 -0.7387
vn -0.0606 -0.7265 -0.6844
vn -0.0776 -0.9970 0.0000
vn -0.0606 -0.7265 0.6844
vn -0.0078 -0.0533 -0.9985
vn 0.0237 -0.0450 -0.9987
vn 0.2387 -0.6933 -0.6799
vn 0.3169 -0.9485 0.0000
vn 0.2387 -0.6933 0.6799
vn 0.0237 -0.0450 0.9987
vn -0.2259 0.6474 0.7279
vn -0.3351 0.9421 0.0000
vn -0.2259 0.6474 -0.7279
vn 0.1808 -0.6482 0.7397
vn -0.0240 0.0598 0.9979
vn -0.2001 0.7086 0.6766
vn -0.2646 0.9644 0.0000
vn -0.2001 0.7086 -0.6766
vn -0.0240 0.0598 -0.9979
vn 0.1808 -0.6482 -0.7397
vn 0.2715 -0.9624 0.0000
vn 0.0041 -0.7083 -0.7058
vn 0.0047 -1.0000 0.0000
vn 0.0041 -0.7083 0.7058
vn -0.0009 0.0024 1.0000
vn -0.0101 0.7106 0.7035
vn -0.0150 0.9999 0.0000
vn -0.0101 0.7106 -0.7035
vn -0.0009 0.0024 -1.0000
vn 0.0000 0.7075 -0.7067
vn 0.0000 -0.7075 -0.7067
vn 0.0000 -0.7075 0.7067
vn 0.0000 0.7075 0.7067
usemtl fondo
s off
f 1/1/1 2/2/1 4/3/1 3/4/1
f 3/5/2 4/6/2 8/7/2 7/8/2
f 7/9/3 8/10/3 6/11/3 5/12/3
f 5/13/4 6/11/4 2/2/4 1/14/4
f 3/5/5 7/8/5 5/13/5 1/14/5
f 8/10/6 4/3/6 2/2/6 6/11/6
f 9/15/1 10/16/1 12/17/1 11/18/1
f 11/19/2 12/20/2 16/21/2 15/22/2
f 15/23/3 16/24/3 14/25/3 13/26/3
f 14/25/4 10/16/4 18/27/4 19/28/4
f 11/19/5 15/22/5 13/26/5 9/15/5
f 26/29/7 25/30/7 24/31/7 21/32/7
f 13/26/4 14/25/4 19/28/4 20/33/4
f 10/16/4 9/15/4 17/34/4 18/27/4
f 9/15/4 13/26/4 20/33/4 17/34/4
f 27/35/8 26/29/8 21/32/8 22/36/8
f 28/37/9 27/35/9 22/36/9 23/38/9
f 25/30/10 28/37/10 23/38/10 24/31/10
f 20/33/11 19/28/11 28/37/11 25/30/11
f 19/28/12 18/27/12 27/35/12 28/37/12
f 18/27/13 17/34/13 26/29/13 27/35/13
f 17/34/14 20/33/14 25/30/14 26/29/14
f 31/39/5 32/40/5 29/41/5 30/42/5
f 14/43/6 16/44/6 12/45/6 10/46/6
f 33/47/2 29/48/2 38/49/2 40/50/2
f 31/51/4 30/52/4 34/53/4 35/54/4
f 32/55/1 31/56/1 35/54/1 36/57/1
f 30/58/3 29/48/3 33/47/3 34/53/3
f 33/47/6 36/57/6 35/54/6 34/53/6
f 22/36/3 21/32/3 40/59/3 38/60/3
f 36/57/2 33/47/2 40/50/2 39/61/2
f 29/48/2 32/55/2 37/62/2 38/49/2
f 32/55/2 36/57/2 39/61/2 37/62/2
f 22/36/5 38/60/5 37/63/5 23/38/5
f 24/31/1 23/38/1 37/63/1 39/64/1
f 21/32/6 24/31/6 39/64/6 40/59/6
s 1
f 46/65/15 54/66/16 53/67/17 45/68/18
f 44/69/19 52/70/20 51/71/21 43/72/22
f 42/73/23 50/74/24 49/75/25 41/76/26
f 41/76/26 49/75/25 56/77/27 48/78/28
f 47/79/29 55/80/30 54/66/16 46/65/15
f 45/68/18 53/67/17 52/70/20 44/69/19
f 43/72/22 51/71/21 50/74/24 42/73/23
f 48/78/28 56/77/27 55/81/30 47/82/29
f 49/75/25 57/83/31 64/84/32 56/77/27
f 55/80/30 63/85/33 62/86/34 54/66/16
f 53/67/17 61/87/35 60/88/36 52/70/20
f 51/71/21 59/89/37 58/90/38 50/74/24
f 56/77/27 64/84/32 63/91/33 55/81/30
f 54/66/16 62/86/34 61/87/35 53/67/17
f 52/70/20 60/88/36 59/89/37 51/71/21
f 50/74/24 58/90/38 57/83/31 49/75/25
f 60/88/36 68/92/39 67/93/40 59/89/37
f 58/90/38 66/94/41 65/95/42 57/83/31
f 57/83/31 65/95/42 72/96/43 64/84/32
f 63/85/33 71/97/44 70/98/45 62/86/34
f 61/87/35 69/99/46 68/92/39 60/88/36
f 59/89/37 67/93/40 66/94/41 58/90/38
f 64/84/32 72/96/43 71/100/44 63/91/33
f 62/86/34 70/98/45 69/99/46 61/87/35
f 130/101/47 80/102/48 79/103/49 129/104/50
f 132/105/51 78/106/52 77/107/53 131/108/54
f 134/109/55 76/110/56 75/111/57 133/112/58
f 136/113/59 74/114/60 73/115/61 135/116/62
f 135/116/62 73/115/61 80/102/48 130/101/47
f 129/117/50 79/118/49 78/106/52 132/105/51
f 131/108/54 77/107/53 76/110/56 134/109/55
f 133/112/58 75/111/57 74/114/60 136/113/59
f 77/107/53 85/119/63 84/120/64 76/110/56
f 75/111/57 83/121/65 82/122/66 74/114/60
f 80/102/48 88/123/67 87/124/68 79/103/49
f 78/106/52 86/125/69 85/119/63 77/107/53
f 76/110/56 84/120/64 83/121/65 75/111/57
f 74/114/60 82/122/66 81/126/70 73/115/61
f 73/115/61 81/126/70 88/123/67 80/102/48
f 79/118/49 87/127/68 86/125/69 78/106/52
f 81/126/70 89/128/71 96/129/72 88/123/67
f 87/127/68 95/130/73 94/131/74 86/125/69
f 85/119/63 93/132/75 92/133/76 84/120/64
f 83/121/65 91/134/77 90/135/78 82/122/66
f 88/123/67 96/129/72 95/136/73 87/124/68
f 86/125/69 94/131/74 93/132/75 85/119/63
f 84/120/64 92/133/76 91/134/77 83/121/65
f 82/122/66 90/135/78 89/128/71 81/126/70
f 94/131/74 102/137/79 101/138/80 93/132/75
f 92/133/76 100/139/81 99/140/82 91/134/77
f 90/135/78 98/141/83 97/142/84 89/128/71
f 89/128/71 97/142/84 104/143/85 96/129/72
f 95/130/73 103/144/86 102/137/79 94/131/74
f 93/132/75 101/138/80 100/139/81 92/133/76
f 91/134/77 99/140/82 98/141/83 90/135/78
f 96/129/72 104/143/85 103/145/86 95/136/73
f 104/143/85 144/146/87 143/147/88 103/145/86
f 102/137/79 142/148/89 141/149/90 101/138/80
f 100/139/81 140/150/91 139/151/92 99/140/82
f 98/141/83 137/152/93 138/153/94 97/142/84
f 97/142/84 138/153/94 144/146/87 104/143/85
f 103/144/86 143/154/88 142/148/89 102/137/79
f 101/138/80 141/149/90 140/150/91 100/139/81
f 99/140/82 139/151/92 137/152/93 98/141/83
f 111/155/1 151/156/1 150/157/1 110/158/1
f 109/159/1 149/160/1 148/161/1 108/162/1
f 107/163/1 147/164/1 145/165/1 106/166/1
f 112/167/1 152/168/1 151/156/1 111/155/1
f 110/158/1 150/157/1 149/160/1 109/159/1
f 108/162/1 148/161/1 147/164/1 107/163/1
f 106/166/1 145/165/1 146/169/1 105/170/1
f 105/170/1 146/169/1 152/168/1 112/167/1
f 114/171/95 122/172/95 121/173/2 113/174/2
f 113/174/2 121/173/2 128/175/96 120/176/96
f 119/177/5 127/178/5 126/179/97 118/180/97
f 117/181/4 125/182/4 124/183/98 116/184/98
f 115/185/6 123/186/6 122/172/95 114/171/95
f 120/176/96 128/175/96 127/178/5 119/177/5
f 118/180/97 126/179/97 125/182/4 117/181/4
f 116/184/98 124/183/98 123/186/6 115/185/6
f 67/93/40 133/112/58 136/113/59 66/94/41
f 69/99/46 131/108/54 134/109/55 68/92/39
f 71/97/44 129/117/50 132/105/51 70/98/45
f 65/95/42 135/116/62 130/101/47 72/96/43
f 66/94/41 136/113/59 135/116/62 65/95/42
f 68/92/39 134/109/55 133/112/58 67/93/40
f 70/98/45 132/105/51 131/108/54 69/99/46
f 72/96/43 130/101/47 129/104/50 71/100/44
