# Blender v2.81 (sub 16) OBJ File: 'oso-uv.blend'
# www.blender.org
mtllib oso-ojo-l.mtl
o Cube.007_Cube.014
v 0.579288 0.131185 0.741337
v 0.568292 0.116080 0.721501
v 0.559905 0.173301 0.752482
v 0.625211 0.116080 0.740549
v 0.694444 0.108492 0.731260
v 0.616207 0.169261 0.757998
v 0.628115 0.083759 0.713322
v 0.633494 0.072815 0.679133
v 0.702084 0.072815 0.702212
v 0.711562 0.060869 0.666500
v 0.777215 0.083759 0.686950
v 0.789829 0.072815 0.653353
v 0.838711 0.116080 0.673131
v 0.765915 0.116080 0.713719
v 0.816292 0.131185 0.696508
v 0.766883 0.169261 0.727539
v 0.770159 0.234741 0.730485
v 0.689997 0.165744 0.748548
v 0.832213 0.173301 0.699212
v 0.840665 0.234741 0.699394
v 0.875735 0.169261 0.666689
v 0.896155 0.165744 0.633277
v 0.888572 0.234741 0.664074
v 0.910501 0.234741 0.628938
v 0.877193 0.300221 0.662909
v 0.897709 0.303738 0.629246
v 0.841230 0.353402 0.666599
v 0.833505 0.296181 0.695864
v 0.818432 0.338297 0.690958
v 0.768144 0.300221 0.724268
v 0.691205 0.303738 0.745415
v 0.768199 0.353402 0.707797
v 0.696631 0.360990 0.725590
v 0.780128 0.385724 0.679397
v 0.792925 0.396667 0.645322
v 0.704834 0.396667 0.695080
v 0.714448 0.408613 0.659017
v 0.630323 0.385723 0.707598
v 0.635772 0.396667 0.673226
v 0.569784 0.353402 0.717632
v 0.627024 0.353402 0.735848
v 0.580697 0.338297 0.737683
v 0.617227 0.300221 0.755353
v 0.611043 0.234741 0.763478
v 0.560726 0.296181 0.750354
v 0.550410 0.234741 0.757456
v 0.531803 0.300221 0.727859
v 0.518345 0.234741 0.733219
v 0.529446 0.303738 0.693302
v 0.515509 0.234741 0.696579
v 0.551947 0.300221 0.654491
v 0.570352 0.360990 0.685371
v 0.588114 0.353402 0.650273
v 0.611414 0.338297 0.624612
v 0.649087 0.385724 0.637809
v 0.723863 0.396667 0.623468
v 0.661145 0.353402 0.609075
v 0.731474 0.360990 0.594494
v 0.660995 0.300221 0.593133
v 0.658222 0.234741 0.588881
v 0.735950 0.303738 0.577132
v 0.596501 0.296181 0.619292
v 0.588795 0.234741 0.617176
v 0.595752 0.173301 0.621232
v 0.539810 0.234741 0.655292
v 0.551232 0.169261 0.656347
v 0.528710 0.165744 0.695210
v 0.586694 0.116080 0.653955
v 0.610116 0.131185 0.627976
v 0.568853 0.108492 0.689261
v 0.646988 0.083759 0.643252
v 0.721239 0.072815 0.630274
v 0.659490 0.116080 0.613367
v 0.729470 0.108492 0.599691
v 0.660083 0.169261 0.595498
v 0.734867 0.165744 0.579939
v 0.737061 0.234741 0.572322
v 0.806673 0.169261 0.575636
v 0.812595 0.234741 0.568190
v 0.862109 0.173301 0.583397
v 0.797465 0.116080 0.593614
v 0.842886 0.131185 0.594128
v 0.794689 0.083759 0.620506
v 0.854384 0.116080 0.612662
v 0.855062 0.108492 0.641690
v 0.891829 0.169261 0.603824
v 0.905292 0.234741 0.598450
v 0.893250 0.300221 0.600139
v 0.872150 0.234741 0.577009
v 0.863328 0.296181 0.580236
v 0.844914 0.338297 0.588868
v 0.807826 0.300221 0.572645
v 0.799591 0.353402 0.588101
v 0.797494 0.385724 0.613234
v 0.856830 0.353402 0.606317
v 0.857753 0.360990 0.634713
v 0.531051 0.169261 0.729810
v 0.688949 0.234741 0.753195
vt 0.132062 0.108461
vt 0.140162 0.108503
vt 0.140123 0.116691
vt 0.132062 0.116606
vt 0.164644 0.018862
vt 0.172789 0.018862
vt 0.172789 0.027007
vt 0.164644 0.027007
vt 0.164559 0.141128
vt 0.172747 0.141089
vt 0.172789 0.149188
vt 0.164644 0.149188
vt 0.147985 0.108801
vt 0.147674 0.117285
vt 0.163965 0.133576
vt 0.172450 0.133265
vt 0.132062 0.100316
vt 0.140179 0.100316
vt 0.148127 0.100316
vt 0.155848 0.100316
vt 0.155385 0.109493
vt 0.154208 0.118897
vt 0.163739 0.100316
vt 0.162961 0.110031
vt 0.159213 0.122037
vt 0.162353 0.127043
vt 0.171757 0.125865
vt 0.171219 0.118289
vt 0.180934 0.117511
vt 0.180934 0.125402
vt 0.180934 0.133124
vt 0.171778 0.109472
vt 0.180934 0.109083
vt 0.172167 0.100316
vt 0.180934 0.100316
vt 0.189702 0.100316
vt 0.190091 0.109472
vt 0.190650 0.118289
vt 0.198130 0.100316
vt 0.198908 0.110031
vt 0.202656 0.122037
vt 0.199516 0.127043
vt 0.190112 0.125865
vt 0.189419 0.133265
vt 0.197904 0.133576
vt 0.206485 0.109493
vt 0.207662 0.118897
vt 0.213884 0.108801
vt 0.214195 0.117285
vt 0.206021 0.100316
vt 0.213743 0.100316
vt 0.221690 0.100316
vt 0.221708 0.108503
vt 0.221746 0.116691
vt 0.229807 0.100316
vt 0.229807 0.108461
vt 0.229807 0.116606
vt 0.197310 0.141128
vt 0.189122 0.141089
vt 0.197225 0.149188
vt 0.189080 0.149188
vt 0.180934 0.141071
vt 0.180934 0.149188
vt 0.180934 0.018862
vt 0.189080 0.018862
vt 0.189080 0.027007
vt 0.180934 0.027007
vt 0.197225 0.018862
vt 0.197225 0.027007
vt 0.189080 0.035152
vt 0.180934 0.035152
vt 0.197225 0.035152
vt 0.189080 0.043298
vt 0.180934 0.043298
vt 0.197225 0.043298
vt 0.221708 0.092128
vt 0.229807 0.092170
vt 0.221746 0.083940
vt 0.229807 0.084025
vt 0.197225 0.051443
vt 0.189080 0.051443
vt 0.214195 0.083346
vt 0.213884 0.091831
vt 0.197310 0.059504
vt 0.189122 0.059543
vt 0.197904 0.067055
vt 0.189419 0.067366
vt 0.180934 0.051443
vt 0.180934 0.059560
vt 0.180934 0.067508
vt 0.172789 0.051443
vt 0.172747 0.059543
vt 0.172789 0.043298
vt 0.172789 0.035152
vt 0.164644 0.035152
vt 0.164644 0.043298
vt 0.164644 0.051443
vt 0.132062 0.084025
vt 0.140123 0.083940
vt 0.140162 0.092128
vt 0.132062 0.092170
vt 0.147674 0.083346
vt 0.147985 0.091831
vt 0.164559 0.059504
vt 0.172450 0.067366
vt 0.163965 0.067055
vt 0.180934 0.075229
vt 0.171757 0.074766
vt 0.162353 0.073588
vt 0.180934 0.083120
vt 0.171219 0.082342
vt 0.159213 0.078595
vt 0.154208 0.081734
vt 0.162961 0.090601
vt 0.155385 0.091138
vt 0.171778 0.091159
vt 0.180934 0.091548
vt 0.190650 0.082342
vt 0.190091 0.091159
vt 0.190112 0.074766
vt 0.202656 0.078595
vt 0.198908 0.090601
vt 0.199516 0.073588
vt 0.207662 0.081734
vt 0.206485 0.091138
vn -0.5657 -0.6936 0.4459
vn -0.2092 -0.8327 0.5127
vn -0.0554 -0.4972 0.8658
vn -0.2977 -0.4808 0.8247
vn -0.3633 -0.2602 0.8946
vn -0.8141 -0.3641 0.4523
vn 0.0045 -0.1928 0.9812
vn 0.0878 -0.8173 0.5694
vn 0.1557 -0.4575 0.8755
vn 0.1883 -0.1715 0.9670
vn -0.6689 -0.7299 -0.1406
vn -0.3265 -0.9428 -0.0670
vn 0.0023 -1.0000 0.0037
vn 0.3297 -0.9414 0.0707
vn 0.3399 -0.7317 0.5907
vn 0.3251 -0.4045 0.8548
vn 0.6697 -0.7307 0.1324
vn 0.5769 -0.5366 0.6157
vn 0.4583 -0.3474 0.8180
vn 0.3297 -0.1499 0.9321
vn 0.4983 -0.1626 0.8516
vn 0.5071 0.0176 0.8617
vn 0.3371 0.0200 0.9412
vn 0.1971 0.0202 0.9802
vn 0.7130 -0.2545 0.6532
vn 0.7438 0.0101 0.6683
vn 0.9087 -0.3811 0.1700
vn 0.9839 -0.0057 0.1785
vn 0.9129 0.3734 0.1646
vn 0.7110 0.2727 0.6482
vn 0.4972 0.1958 0.8452
vn 0.6724 0.7298 0.1237
vn 0.5737 0.5500 0.6069
vn 0.4574 0.3752 0.8062
vn 0.3257 0.4314 0.8413
vn 0.3305 0.1878 0.9249
vn 0.1906 0.2087 0.9592
vn 0.1603 0.4822 0.8613
vn 0.3393 0.7405 0.5801
vn 0.0923 0.8239 0.5591
vn 0.3288 0.9423 0.0631
vn 0.0013 1.0000 -0.0016
vn -0.3255 0.9429 -0.0698
vn -0.1993 0.8395 0.5054
vn -0.0457 0.5199 0.8530
vn -0.6664 0.7320 -0.1413
vn -0.5536 0.7056 0.4424
vn -0.2845 0.5034 0.8158
vn 0.0098 0.2282 0.9735
vn -0.3539 0.2913 0.8887
vn 0.0081 0.0195 0.9998
vn -0.3815 0.0175 0.9242
vn -0.8061 0.3835 0.4506
vn -0.8800 0.0114 0.4749
vn -0.9047 0.3793 -0.1937
vn -0.9776 0.0024 -0.2105
vn -0.7252 0.2711 -0.6329
vn -0.7591 -0.0049 -0.6509
vn -0.5800 0.5571 -0.5943
vn -0.3340 0.7457 -0.5765
vn -0.3031 0.4304 -0.8502
vn -0.4543 0.3824 -0.8046
vn -0.4967 0.1886 -0.8472
vn -0.1242 0.4602 -0.8791
vn -0.0798 0.8174 -0.5704
vn -0.2929 0.1701 -0.9409
vn -0.1326 0.1757 -0.9754
vn -0.5062 -0.0104 -0.8623
vn -0.2945 -0.0150 -0.9555
vn -0.1304 -0.0191 -0.9913
vn -0.4929 -0.2087 -0.8447
vn -0.2884 -0.1993 -0.9365
vn -0.7230 -0.2804 -0.6314
vn -0.9065 -0.3750 -0.1939
vn -0.5750 -0.5663 -0.5904
vn -0.4481 -0.4010 -0.7990
vn -0.2948 -0.4535 -0.8411
vn -0.3265 -0.7551 -0.5684
vn -0.1155 -0.4884 -0.8649
vn -0.0726 -0.8272 -0.5571
vn -0.1278 -0.2124 -0.9688
vn 0.0499 -0.0232 -0.9985
vn 0.0481 -0.2198 -0.9743
vn 0.0861 -0.5033 -0.8598
vn 0.3671 -0.0268 -0.9298
vn 0.3518 -0.2700 -0.8963
vn 0.2963 -0.4721 -0.8302
vn 0.5479 -0.6851 -0.4799
vn 0.2142 -0.8278 -0.5184
vn 0.7771 -0.3728 -0.5070
vn 0.8426 -0.0218 -0.5381
vn 0.3513 0.2213 -0.9097
vn 0.7847 0.3373 -0.5200
vn 0.0435 0.1755 -0.9835
vn 0.2930 0.4340 -0.8519
vn 0.5540 0.6660 -0.4994
vn 0.0792 0.4701 -0.8790
vn 0.2116 0.8171 -0.5362
usemtl None
s 1
f 2/1/1 7/2/2 4/3/3 1/4/4
f 1/5/4 3/6/5 97/7/6 2/8/1
f 4/9/3 6/10/7 3/11/5 1/12/4
f 7/2/2 9/13/8 5/14/9 4/3/3
f 5/15/9 18/16/10 6/10/7 4/9/3
f 70/17/11 8/18/12 7/2/2 2/1/1
f 8/18/12 10/19/13 9/13/8 7/2/2
f 10/19/13 12/20/14 11/21/15 9/13/8
f 9/13/8 11/21/15 14/22/16 5/14/9
f 12/20/14 85/23/17 13/24/18 11/21/15
f 11/21/15 13/24/18 15/25/19 14/22/16
f 14/26/16 16/27/20 18/16/10 5/15/9
f 15/25/19 19/28/21 16/27/20 14/26/16
f 19/28/21 20/29/22 17/30/23 16/27/20
f 16/27/20 17/30/23 98/31/24 18/16/10
f 21/32/25 23/33/26 20/29/22 19/28/21
f 13/24/18 21/32/25 19/28/21 15/25/19
f 85/23/17 22/34/27 21/32/25 13/24/18
f 22/34/27 24/35/28 23/33/26 21/32/25
f 24/35/28 26/36/29 25/37/30 23/33/26
f 23/33/26 25/37/30 28/38/31 20/29/22
f 26/36/29 96/39/32 27/40/33 25/37/30
f 25/37/30 27/40/33 29/41/34 28/38/31
f 28/38/31 29/41/34 32/42/35 30/43/36
f 20/29/22 28/38/31 30/43/36 17/30/23
f 17/30/23 30/43/36 31/44/37 98/31/24
f 30/43/36 32/42/35 33/45/38 31/44/37
f 27/40/33 34/46/39 32/47/35 29/41/34
f 34/46/39 36/48/40 33/49/38 32/47/35
f 96/39/32 35/50/41 34/46/39 27/40/33
f 35/50/41 37/51/42 36/48/40 34/46/39
f 37/51/42 39/52/43 38/53/44 36/48/40
f 36/48/40 38/53/44 41/54/45 33/49/38
f 39/52/43 52/55/46 40/56/47 38/53/44
f 38/53/44 40/56/47 42/57/48 41/54/45
f 31/44/37 33/45/38 41/58/45 43/59/49
f 43/59/49 41/58/45 42/60/48 45/61/50
f 98/31/24 31/44/37 43/59/49 44/62/51
f 44/62/51 43/59/49 45/61/50 46/63/52
f 46/64/52 45/65/50 47/66/53 48/67/54
f 45/65/50 42/68/48 40/69/47 47/66/53
f 48/67/54 47/66/53 49/70/55 50/71/56
f 47/66/53 40/69/47 52/72/46 49/70/55
f 50/71/56 49/70/55 51/73/57 65/74/58
f 49/70/55 52/72/46 53/75/59 51/73/57
f 55/76/60 53/77/59 52/55/46 39/52/43
f 57/78/61 54/79/62 53/77/59 55/76/60
f 51/73/57 53/75/59 54/80/62 62/81/63
f 58/82/64 57/78/61 55/76/60 56/83/65
f 56/83/65 55/76/60 39/52/43 37/51/42
f 62/81/63 54/80/62 57/84/61 59/85/66
f 59/85/66 57/84/61 58/86/64 61/87/67
f 63/88/68 62/81/63 59/85/66 60/89/69
f 60/89/69 59/85/66 61/87/67 77/90/70
f 65/74/58 51/73/57 62/81/63 63/88/68
f 64/91/71 63/88/68 60/89/69 75/92/72
f 66/93/73 65/74/58 63/88/68 64/91/71
f 67/94/74 50/71/56 65/74/58 66/93/73
f 70/95/11 67/94/74 66/93/73 68/96/75
f 68/96/75 66/93/73 64/91/71 69/97/76
f 69/98/76 73/99/77 71/100/78 68/101/75
f 68/101/75 71/100/78 8/18/12 70/17/11
f 73/99/77 74/102/79 72/103/80 71/100/78
f 71/100/78 72/103/80 10/19/13 8/18/12
f 73/104/77 75/92/72 76/105/81 74/106/79
f 69/97/76 64/91/71 75/92/72 73/104/77
f 75/92/72 60/89/69 77/90/70 76/105/81
f 76/105/81 77/90/70 79/107/82 78/108/83
f 74/106/79 76/105/81 78/108/83 81/109/84
f 78/108/83 79/107/82 89/110/85 80/111/86
f 81/109/84 78/108/83 80/111/86 82/112/87
f 81/113/84 82/112/87 84/114/88 83/115/89
f 74/102/79 81/113/84 83/115/89 72/103/80
f 72/103/80 83/115/89 12/20/14 10/19/13
f 83/115/89 84/114/88 85/23/17 12/20/14
f 84/114/88 86/116/90 22/34/27 85/23/17
f 82/112/87 80/111/86 86/116/90 84/114/88
f 80/111/86 89/110/85 87/117/91 86/116/90
f 86/116/90 87/117/91 24/35/28 22/34/27
f 89/110/85 90/118/92 88/119/93 87/117/91
f 87/117/91 88/119/93 26/36/29 24/35/28
f 79/107/82 92/120/94 90/118/92 89/110/85
f 90/118/92 91/121/95 95/122/96 88/119/93
f 92/120/94 93/123/97 91/121/95 90/118/92
f 61/87/67 58/86/64 93/123/97 92/120/94
f 77/90/70 61/87/67 92/120/94 79/107/82
f 93/124/97 58/82/64 56/83/65 94/125/98
f 91/121/95 93/124/97 94/125/98 95/122/96
f 94/125/98 56/83/65 37/51/42 35/50/41
f 95/122/96 94/125/98 35/50/41 96/39/32
f 88/119/93 95/122/96 96/39/32 26/36/29
f 2/8/1 97/7/6 67/94/74 70/95/11
f 97/7/6 48/67/54 50/71/56 67/94/74
f 3/6/5 46/64/52 48/67/54 97/7/6
f 6/10/7 44/62/51 46/63/52 3/11/5
f 18/16/10 98/31/24 44/62/51 6/10/7
