# Blender v2.81 (sub 16) OBJ File: 'oso-uv.blend'
# www.blender.org
mtllib oso-pie-r.mtl
o Cube.004_Cube.008
v -0.921761 -2.621478 0.176381
v -0.806378 -2.662576 0.183497
v -0.952683 -2.540637 0.200874
v -0.935652 -2.651856 0.152207
v -0.962443 -2.689064 0.089162
v -0.797159 -2.731861 0.144325
v -0.994021 -2.550407 0.173261
v -1.047012 -2.410330 0.202121
v -1.041578 -2.571626 0.103299
v -1.111227 -2.418764 0.120928
v -1.054956 -2.574039 0.066594
v -1.127964 -2.420224 0.077994
v -0.971286 -2.692411 0.057287
v -1.062875 -2.575062 0.030059
v -1.137734 -2.420974 0.035345
v -1.062875 -2.575062 -0.043205
v -0.976625 -2.693662 0.025521
v -0.976626 -2.693662 -0.038305
v -0.780714 -2.790249 0.020663
v -0.780714 -2.790249 -0.038944
v -0.782560 -2.788811 0.050222
v -0.600308 -2.693661 0.023015
v -0.600308 -2.693661 -0.056813
v -0.609634 -2.692411 0.062466
v -0.532840 -2.577023 0.027212
v -0.480920 -2.436660 0.032610
v -0.532840 -2.577023 -0.072737
v -0.545103 -2.575992 0.076532
v -0.495464 -2.435853 0.093573
v -0.565584 -2.573528 0.124155
v -0.519883 -2.433980 0.152220
v -0.632368 -2.551359 0.205866
v -0.625108 -2.689064 0.100924
v -0.672365 -2.651856 0.172301
v -0.785698 -2.784677 0.079740
v -0.696250 -2.621478 0.197306
v -0.681491 -2.540942 0.230329
v -0.665295 -2.409343 0.280041
v -0.818362 -2.553967 0.229612
v -0.832375 -2.410060 0.280476
v -0.847721 -2.239129 0.332167
v -0.992078 -2.406910 0.236100
v -1.031508 -2.239340 0.273598
v -1.067380 -2.055527 0.306905
v -1.095590 -2.240384 0.233088
v -1.170864 -2.242927 0.139217
v -1.137737 -2.055930 0.260685
v -1.219816 -2.056902 0.155326
v -0.956520 -2.057610 0.317762
v -1.078756 -2.063929 0.181432
v -0.718898 -2.055433 0.332737
v -0.864902 -2.055056 0.377614
v -0.628751 -2.054492 0.406316
v -0.550501 -2.134002 0.346245
v -0.649372 -2.246432 0.338826
v -0.576949 -2.267752 0.301361
v -0.484723 -2.294402 0.180576
v -0.602499 -2.417949 0.250809
v -0.457478 -2.296473 0.110724
v -0.456897 -2.179597 0.204402
v -0.427905 -2.182333 0.125122
v -0.476773 -2.179790 0.123507
v -0.537594 -2.180368 -0.047164
v -0.609443 -2.133955 0.268710
v -0.410504 -2.183039 0.042920
v -0.441243 -2.297142 0.038186
v -0.410504 -2.183039 -0.124008
v -0.427905 -2.182333 -0.205750
v -0.441243 -2.297142 -0.109077
v -0.457478 -2.296473 -0.181194
v -0.480920 -2.436660 -0.091073
v -0.495464 -2.435853 -0.151678
v -0.545103 -2.575992 -0.121794
v -0.519883 -2.433980 -0.209707
v -0.484723 -2.294402 -0.250320
v -0.602499 -2.417949 -0.305699
v -0.565584 -2.573528 -0.168999
v -0.632368 -2.551359 -0.249671
v -0.625108 -2.689064 -0.134444
v -0.672365 -2.651856 -0.206861
v -0.609634 -2.692411 -0.096133
v -0.785698 -2.784677 -0.098762
v -0.797159 -2.731861 -0.166920
v -0.962443 -2.689064 -0.103814
v -0.782560 -2.788811 -0.068748
v -0.971286 -2.692412 -0.070755
v -1.054956 -2.574038 -0.080633
v -1.127964 -2.420224 -0.093771
v -1.041578 -2.571626 -0.118854
v -1.111227 -2.418765 -0.138530
v -0.994021 -2.550407 -0.194192
v -1.047012 -2.410330 -0.226074
v -0.935652 -2.651856 -0.171463
v -0.952682 -2.540637 -0.225434
v -0.992078 -2.406910 -0.264690
v -0.921761 -2.621478 -0.198423
v -0.818362 -2.553967 -0.262466
v -0.832374 -2.410060 -0.320763
v -0.806377 -2.662576 -0.210216
v -0.681491 -2.540942 -0.272369
v -0.696250 -2.621478 -0.232940
v -0.665295 -2.409343 -0.331825
v -0.649372 -2.246432 -0.401824
v -0.847721 -2.239129 -0.380081
v -0.628751 -2.054492 -0.480983
v -0.576949 -2.267753 -0.368096
v -0.550501 -2.134002 -0.423521
v -0.456897 -2.179597 -0.284260
v -0.767223 -2.133684 -0.365133
v -0.864902 -2.055056 -0.431658
v -0.979802 -2.119460 -0.255316
v -0.632814 -2.178100 -0.214628
v -0.842053 -2.148522 -0.082902
v -0.580482 -2.180274 -0.132367
v -0.779712 -2.145612 0.005327
v -0.914696 -2.078055 0.073464
v -0.721569 -2.140892 0.095116
v -0.857368 -2.068411 0.163078
v -0.969406 -2.087537 -0.015746
v -1.119424 -2.067404 0.109874
v -1.152408 -2.070590 0.038803
v -1.240277 -2.057305 0.100186
v -1.189880 -2.243727 0.089766
v -1.252116 -2.057555 0.045615
v -1.252116 -2.057555 -0.063410
v -1.200911 -2.244203 0.040743
v -1.200911 -2.244203 -0.057284
v -1.137734 -2.420974 -0.050040
v -1.189880 -2.243727 -0.107548
v -1.240277 -2.057305 -0.119343
v -1.170865 -2.242928 -0.159097
v -1.095590 -2.240384 -0.260366
v -1.219816 -2.056902 -0.176795
v -1.137737 -2.055930 -0.290490
v -1.199895 -2.068890 -0.103242
v -1.075361 -2.086480 -0.195213
v -1.067379 -2.055527 -0.343228
v -1.031508 -2.239340 -0.306518
v -1.067380 -2.055527 0.306905
v -1.137737 -2.055930 0.260685
v -1.219816 -2.056902 0.155326
v -0.628751 -2.054492 0.406316
v -0.864902 -2.055056 0.377614
v -0.550501 -2.134002 0.346245
v -0.427905 -2.182333 0.125122
v -0.456897 -2.179597 0.204402
v -0.410504 -2.183039 0.042920
v -0.410504 -2.183039 -0.124008
v -0.427905 -2.182333 -0.205750
v -0.628751 -2.054492 -0.480983
v -0.550501 -2.134002 -0.423521
v -0.456897 -2.179597 -0.284260
v -1.240277 -2.057305 0.100186
v -1.252116 -2.057555 0.045615
v -1.252116 -2.057555 -0.063410
v -1.240277 -2.057305 -0.119343
v -1.219816 -2.056902 -0.176795
v -1.137737 -2.055930 -0.290490
v -1.067379 -2.055527 -0.343228
v -0.864902 -2.055056 -0.431658
vt 0.161323 0.267729
vt 0.164809 0.271176
vt 0.160320 0.278624
vt 0.157749 0.277120
vt 0.162100 0.285921
vt 0.171256 0.277746
vt 0.157523 0.286544
vt 0.150106 0.284887
vt 0.153060 0.274817
vt 0.158086 0.264726
vt 0.145846 0.300984
vt 0.157767 0.301976
vt 0.165282 0.300554
vt 0.140855 0.299497
vt 0.146941 0.283976
vt 0.150980 0.274120
vt 0.136342 0.297570
vt 0.144044 0.282784
vt 0.149089 0.273301
vt 0.128298 0.292364
vt 0.138915 0.279483
vt 0.145650 0.271099
vt 0.155557 0.262618
vt 0.156848 0.263637
vt 0.152979 0.260780
vt 0.158572 0.250101
vt 0.162841 0.253212
vt 0.164565 0.255257
vt 0.169766 0.245585
vt 0.162520 0.240324
vt 0.172804 0.249013
vt 0.181078 0.233969
vt 0.168005 0.224818
vt 0.186292 0.240068
vt 0.190346 0.247138
vt 0.175240 0.253035
vt 0.166088 0.257541
vt 0.195077 0.263289
vt 0.179020 0.262248
vt 0.169647 0.262893
vt 0.171512 0.265788
vt 0.179048 0.267715
vt 0.182312 0.289819
vt 0.194149 0.272381
vt 0.169479 0.324540
vt 0.197557 0.310063
vt 0.219547 0.282792
vt 0.157643 0.326312
vt 0.155771 0.360803
vt 0.173110 0.359653
vt 0.219424 0.342565
vt 0.139214 0.324486
vt 0.128911 0.355591
vt 0.713134 0.960196
vt 0.712087 0.963306
vt 0.707575 0.970356
vt 0.708942 0.966307
vt 0.713134 0.954996
vt 0.709410 0.959172
vt 0.702004 0.972513
vt 0.702162 0.963934
vt 0.701027 0.976951
vt 0.257300 0.301831
vt 0.696093 0.976803
vt 0.696184 0.972999
vt 0.219935 0.267507
vt 0.248907 0.273960
vt 0.211972 0.240335
vt 0.236405 0.234049
vt 0.205551 0.228432
vt 0.227356 0.216141
vt 0.688448 0.971457
vt 0.689643 0.974475
vt 0.686931 0.972614
vt 0.684521 0.970404
vt 0.686503 0.964683
vt 0.680745 0.965117
vt 0.695668 0.964939
vt 0.196967 0.218121
vt 0.214961 0.200223
vt 0.181368 0.179597
vt 0.174732 0.203346
vt 0.685929 0.961036
vt 0.679458 0.962131
vt 0.162037 0.199631
vt 0.162626 0.174925
vt 0.160375 0.222283
vt 0.158194 0.238758
vt 0.152291 0.221157
vt 0.148813 0.198349
vt 0.153529 0.237925
vt 0.135471 0.222780
vt 0.121276 0.201308
vt 0.143407 0.237771
vt 0.153341 0.248499
vt 0.146840 0.247072
vt 0.156053 0.249119
vt 0.145840 0.257095
vt 0.150023 0.259105
vt 0.151535 0.259923
vt 0.142638 0.267963
vt 0.138483 0.264280
vt 0.144113 0.269630
vt 0.134428 0.274606
vt 0.136609 0.277244
vt 0.121173 0.284779
vt 0.124650 0.288909
vt 0.115221 0.273709
vt 0.129725 0.268115
vt 0.113460 0.265943
vt 0.128393 0.263450
vt 0.135974 0.262360
vt 0.116736 0.245789
vt 0.132246 0.251425
vt 0.141111 0.255042
vt 0.127406 0.227143
vt 0.138292 0.239886
vt 0.143317 0.246381
vt 0.107792 0.207464
vt 0.091393 0.238343
vt 0.053241 0.230314
vt 0.075527 0.179706
vt 0.103458 0.177377
vt 0.143343 0.173773
vt 0.688239 0.944197
vt 0.686714 0.949460
vt 0.678494 0.952187
vt 0.679411 0.947361
vt 0.685733 0.957289
vt 0.678619 0.958984
vt 0.696718 0.942844
vt 0.695747 0.948122
vt 0.695257 0.956623
vt 0.695379 0.960793
vt 0.701259 0.955698
vt 0.701750 0.959783
vt 0.708940 0.955993
vt 0.708252 0.953017
vt 0.711523 0.950850
vt 0.712451 0.952814
vt 0.118836 0.351690
vt 0.131757 0.322020
vt 0.109729 0.347293
vt 0.125033 0.318968
vt 0.708952 0.947480
vt 0.706361 0.947503
vt 0.092859 0.335673
vt 0.112940 0.311029
vt 0.107390 0.305946
vt 0.085188 0.328966
vt 0.077457 0.321057
vt 0.102018 0.299882
vt 0.092608 0.282958
vt 0.061501 0.297547
vt 0.707279 0.946015
vt 0.705310 0.944696
vt 0.700254 0.947588
vt 0.700124 0.942974
vt 0.055506 0.280529
vt 0.089398 0.270933
vn -0.0432 -0.6941 0.7185
vn -0.0778 -0.4686 0.8800
vn -0.3096 -0.4334 0.8463
vn -0.4477 -0.5646 0.6934
vn -0.3499 -0.3690 0.8610
vn -0.1036 -0.3645 0.9254
vn -0.5789 -0.4165 0.7009
vn -0.7519 -0.4764 0.4556
vn -0.5820 -0.7092 0.3979
vn -0.0034 -0.9171 0.3986
vn -0.7989 -0.3686 0.4753
vn -0.6117 -0.3404 0.7141
vn -0.3780 -0.3166 0.8700
vn -0.8819 -0.3816 0.2766
vn -0.8267 -0.5018 0.2546
vn -0.6380 -0.7497 0.1756
vn -0.9161 -0.3870 0.1051
vn -0.8537 -0.5118 0.0954
vn -0.6490 -0.7583 0.0620
vn -0.9160 -0.3879 -0.1025
vn -0.8537 -0.5124 -0.0930
vn -0.6491 -0.7583 -0.0603
vn 0.0251 -0.9985 0.0489
vn 0.0182 -0.9882 0.1518
vn 0.0226 -0.9986 -0.0471
vn 0.6962 -0.7129 -0.0834
vn 0.7006 -0.7084 0.0857
vn 0.6744 -0.6996 0.2359
vn 0.8986 -0.4244 0.1114
vn 0.8946 -0.4329 -0.1110
vn 0.8570 -0.4211 0.2969
vn 0.9431 -0.3131 0.1118
vn 0.9400 -0.3221 -0.1119
vn 0.9002 -0.3182 0.2971
vn 0.7943 -0.3346 0.5070
vn 0.7520 -0.4191 0.5087
vn 0.5839 -0.6670 0.4628
vn 0.5380 -0.3558 0.7641
vn 0.5162 -0.4034 0.7555
vn 0.3819 -0.5486 0.7437
vn 0.1733 -0.4368 0.8827
vn 0.1889 -0.3804 0.9053
vn -0.1339 -0.3209 0.9376
vn 0.1771 -0.3489 0.9203
vn -0.4059 -0.2688 0.8734
vn -0.1742 -0.2838 0.9429
vn 0.1457 -0.3316 0.9321
vn -0.6371 -0.2812 0.7176
vn -0.6525 -0.2548 0.7137
vn -0.4248 -0.2455 0.8713
vn -0.1985 -0.2650 0.9436
vn -0.8270 -0.2949 0.4786
vn -0.8400 -0.2639 0.4740
vn 0.0425 0.9968 -0.0674
vn 0.0252 0.9975 -0.0663
vn -0.0014 0.9997 -0.0247
vn 0.0167 0.9979 -0.0629
vn 0.0665 0.9955 -0.0666
vn 0.0359 0.9964 -0.0761
vn 0.1868 0.9634 -0.1921
vn 0.1752 0.9665 -0.1874
vn 0.3215 0.8885 -0.3272
vn 0.0704 -0.3161 0.9461
vn 0.3412 0.8950 -0.2874
vn 0.3063 0.9192 -0.2473
vn 0.5448 -0.3459 0.7638
vn 0.4801 -0.3511 0.8039
vn 0.8142 -0.3082 0.4919
vn 0.8097 -0.3105 0.4979
vn 0.9167 -0.2802 0.2849
vn 0.9195 -0.2752 0.2805
vn 0.1155 0.9917 -0.0569
vn 0.2006 0.9749 -0.0964
vn 0.0522 0.9986 -0.0063
vn 0.0298 0.9995 -0.0063
vn 0.0788 0.9956 -0.0503
vn 0.0195 0.9998 -0.0029
vn 0.2495 0.9467 -0.2035
vn 0.9566 -0.2710 0.1069
vn 0.9586 -0.2646 0.1052
vn 0.9553 -0.2740 -0.1110
vn 0.9540 -0.2798 -0.1072
vn 0.0642 0.9973 -0.0361
vn 0.0182 0.9998 0.0109
vn 0.9091 -0.3035 -0.2854
vn 0.9108 -0.2991 -0.2846
vn 0.8914 -0.3421 -0.2972
vn 0.8459 -0.4437 -0.2959
vn 0.7756 -0.3739 -0.5085
vn 0.7963 -0.3471 -0.4953
vn 0.7309 -0.4566 -0.5073
vn 0.4981 -0.4093 -0.7644
vn 0.5004 -0.3988 -0.7685
vn 0.4785 -0.4550 -0.7510
vn 0.5600 -0.6914 -0.4564
vn 0.3435 -0.5901 -0.7306
vn 0.6620 -0.7125 -0.2327
vn -0.0742 -0.7191 -0.6909
vn -0.0187 -0.9240 -0.3818
vn 0.0109 -0.9890 -0.1476
vn -0.5907 -0.7123 -0.3790
vn -0.4739 -0.5826 -0.6603
vn -0.6394 -0.7498 -0.1703
vn -0.7599 -0.4830 -0.4348
vn -0.8278 -0.5039 -0.2464
vn -0.8080 -0.3759 -0.4535
vn -0.8834 -0.3847 -0.2677
vn -0.6405 -0.3572 -0.6798
vn -0.6049 -0.4344 -0.6673
vn -0.4274 -0.3455 -0.8354
vn -0.3948 -0.4005 -0.8268
vn -0.3516 -0.4661 -0.8118
vn -0.1950 -0.3622 -0.9114
vn -0.1583 -0.4085 -0.8989
vn -0.1242 -0.5093 -0.8515
vn 0.1167 -0.4014 -0.9084
vn 0.1354 -0.4335 -0.8909
vn 0.1247 -0.4865 -0.8647
vn 0.0756 -0.3794 -0.9221
vn -0.2415 -0.3190 -0.9164
vn -0.2668 -0.2969 -0.9169
vn -0.0040 -0.3592 -0.9332
vn 0.4192 -0.4031 -0.8134
vn 0.7865 -0.3512 -0.5080
vn 0.2262 0.8079 0.5442
vn 0.1689 0.8978 0.4067
vn 0.1140 0.9049 0.4099
vn 0.1616 0.7140 0.6812
vn 0.0912 0.9927 0.0790
vn 0.0490 0.9912 0.1224
vn 0.2974 0.8977 0.3250
vn 0.2723 0.9466 0.1728
vn 0.2225 0.9701 -0.0964
vn 0.2166 0.9593 -0.1811
vn 0.1922 0.9712 -0.1404
vn 0.1763 0.9660 -0.1888
vn 0.0613 0.9947 -0.0826
vn 0.0988 0.9934 -0.0575
vn 0.1290 0.9907 -0.0428
vn 0.0932 0.9935 -0.0652
vn -0.9236 -0.2655 0.2764
vn -0.9123 -0.2998 0.2788
vn -0.9581 -0.2662 0.1053
vn -0.9475 -0.3016 0.1061
vn 0.1756 0.9844 0.0022
vn 0.1769 0.9836 0.0351
vn -0.9582 -0.2669 -0.1033
vn -0.9475 -0.3024 -0.1036
vn -0.9141 -0.3024 -0.2700
vn -0.9255 -0.2675 -0.2680
vn -0.8498 -0.2687 -0.4535
vn -0.8371 -0.3009 -0.4568
vn -0.6682 -0.2949 -0.6830
vn -0.6827 -0.2663 -0.6804
vn 0.2469 0.9661 0.0759
vn 0.2224 0.9669 0.1249
vn 0.2449 0.9684 0.0473
vn 0.2785 0.9434 0.1801
vn -0.4782 -0.2661 -0.8369
vn -0.4594 -0.2926 -0.8386
usemtl None
s 1
f 6/1/1 2/2/2 1/3/3 4/4/4
f 3/5/5 1/3/3 2/2/2 39/6/6
f 7/7/7 4/4/4 1/3/3 3/5/5
f 9/8/8 5/9/9 4/4/4 7/7/7
f 4/4/4 5/9/9 35/10/10 6/1/1
f 10/11/11 9/8/8 7/7/7 8/12/12
f 8/12/12 7/7/7 3/5/5 42/13/13
f 12/14/14 11/15/15 9/8/8 10/11/11
f 11/15/15 13/16/16 5/9/9 9/8/8
f 15/17/17 14/18/18 11/15/15 12/14/14
f 14/18/18 17/19/19 13/16/16 11/15/15
f 128/20/20 16/21/21 14/18/18 15/17/17
f 16/21/21 18/22/22 17/19/19 14/18/18
f 19/23/23 21/24/24 13/16/16 17/19/19
f 17/19/19 18/22/22 20/25/25 19/23/23
f 20/25/25 23/26/26 22/27/27 19/23/23
f 22/27/27 24/28/28 21/24/24 19/23/23
f 25/29/29 22/27/27 23/26/26 27/30/30
f 28/31/31 24/28/28 22/27/27 25/29/29
f 26/32/32 25/29/29 27/30/30 71/33/33
f 29/34/34 28/31/31 25/29/29 26/32/32
f 31/35/35 30/36/36 28/31/31 29/34/34
f 30/36/36 33/37/37 24/28/28 28/31/31
f 58/38/38 32/39/39 30/36/36 31/35/35
f 32/39/39 34/40/40 33/37/37 30/36/36
f 21/24/24 24/28/28 33/37/37 35/10/10
f 35/10/10 33/37/37 34/40/40 6/1/1
f 13/16/16 21/24/24 35/10/10 5/9/9
f 34/40/40 36/41/41 2/2/2 6/1/1
f 37/42/42 36/41/41 34/40/40 32/39/39
f 39/6/6 2/2/2 36/41/41 37/42/42
f 40/43/43 39/6/6 37/42/42 38/44/44
f 38/44/44 37/42/42 32/39/39 58/38/38
f 42/13/13 3/5/5 39/6/6 40/43/43
f 43/45/45 42/13/13 40/43/43 41/46/46
f 41/46/46 40/43/43 38/44/44 55/47/47
f 45/48/48 8/12/12 42/13/13 43/45/45
f 140/49/49 45/48/48 43/45/45 139/50/50
f 52/51/51 139/50/50 43/45/45 41/46/46
f 46/52/52 10/11/11 8/12/12 45/48/48
f 140/49/49 141/53/53 46/52/52 45/48/48
f 47/54/54 44/55/55 143/56/56 49/57/57
f 48/58/58 47/54/54 49/57/57 50/59/59
f 50/59/59 49/57/57 51/60/60 118/61/61
f 49/57/57 143/56/56 142/62/62 51/60/60
f 53/63/63 52/51/51 41/46/46 55/47/47
f 51/60/60 142/62/62 144/64/64 64/65/65
f 53/63/63 55/47/47 56/66/66 54/67/67
f 55/47/47 38/44/44 58/38/38 56/66/66
f 56/66/66 58/38/38 31/35/35 57/68/68
f 146/69/69 54/67/67 56/66/66 57/68/68
f 57/68/68 31/35/35 29/34/34 59/70/70
f 146/69/69 57/68/68 59/70/70 145/71/71
f 62/72/72 60/73/73 61/74/74 147/75/75
f 64/65/65 144/64/64 60/73/73 62/72/72
f 63/76/76 62/72/72 147/75/75 148/77/77
f 117/78/78 64/65/65 62/72/72 63/76/76
f 145/71/71 59/70/70 66/79/79 65/80/80
f 67/81/81 65/80/80 66/79/79 69/82/82
f 114/83/83 63/76/76 148/77/77 149/84/84
f 67/81/81 69/82/82 70/85/85 68/86/86
f 69/82/82 71/33/33 72/87/87 70/85/85
f 66/79/79 26/32/32 71/33/33 69/82/82
f 71/33/33 27/30/30 73/88/88 72/87/87
f 70/85/85 72/87/87 74/89/89 75/90/90
f 72/87/87 73/88/88 77/91/91 74/89/89
f 75/90/90 74/89/89 76/92/92 106/93/93
f 74/89/89 77/91/91 78/94/94 76/92/92
f 77/91/91 79/95/95 80/96/96 78/94/94
f 73/88/88 81/97/97 79/95/95 77/91/91
f 83/98/98 80/96/96 79/95/95 82/99/99
f 79/95/95 81/97/97 85/100/100 82/99/99
f 84/101/101 93/102/102 83/98/98 82/99/99
f 82/99/99 85/100/100 86/103/103 84/101/101
f 86/103/103 85/100/100 20/25/25 18/22/22
f 85/100/100 81/97/97 23/26/26 20/25/25
f 89/104/104 84/101/101 86/103/103 87/105/105
f 87/105/105 86/103/103 18/22/22 16/21/21
f 90/106/106 89/104/104 87/105/105 88/107/107
f 88/107/107 87/105/105 16/21/21 128/20/20
f 92/108/108 91/109/109 89/104/104 90/106/106
f 91/109/109 93/102/102 84/101/101 89/104/104
f 95/110/110 94/111/111 91/109/109 92/108/108
f 94/111/111 96/112/112 93/102/102 91/109/109
f 98/113/113 97/114/114 94/111/111 95/110/110
f 97/114/114 99/115/115 96/112/112 94/111/111
f 102/116/116 100/117/117 97/114/114 98/113/113
f 100/117/117 101/118/118 99/115/115 97/114/114
f 78/94/94 80/96/96 101/118/118 100/117/117
f 76/92/92 78/94/94 100/117/117 102/116/116
f 106/93/93 76/92/92 102/116/116 103/119/119
f 103/119/119 102/116/116 98/113/113 104/120/120
f 110/121/121 150/122/122 103/119/119 104/120/120
f 151/123/123 106/93/93 103/119/119 150/122/122
f 151/123/123 152/124/124 75/90/90 106/93/93
f 160/125/125 109/126/126 107/127/127 105/128/128
f 109/126/126 112/129/129 108/130/130 107/127/127
f 159/131/131 111/132/132 109/126/126 160/125/125
f 111/132/132 113/133/133 112/129/129 109/126/126
f 113/133/133 115/134/134 114/83/83 112/129/129
f 112/129/129 114/83/83 149/84/84 108/130/130
f 115/134/134 117/78/78 63/76/76 114/83/83
f 119/135/135 116/136/136 115/134/134 113/133/133
f 116/136/136 118/61/61 117/78/78 115/134/134
f 118/61/61 51/60/60 64/65/65 117/78/78
f 120/137/137 50/59/59 118/61/61 116/136/136
f 121/138/138 120/137/137 116/136/136 119/135/135
f 154/139/139 153/140/140 120/137/137 121/138/138
f 153/140/140 48/58/58 50/59/59 120/137/137
f 122/141/141 123/142/142 46/52/52 141/53/53
f 124/143/143 126/144/144 123/142/142 122/141/141
f 155/145/145 154/139/139 121/138/138 135/146/146
f 124/143/143 125/147/147 127/148/148 126/144/144
f 127/148/148 128/20/20 15/17/17 126/144/144
f 126/144/144 15/17/17 12/14/14 123/142/142
f 129/149/149 88/107/107 128/20/20 127/148/148
f 156/150/150 129/149/149 127/148/148 125/147/147
f 157/151/151 131/152/152 129/149/149 156/150/150
f 131/152/152 90/106/106 88/107/107 129/149/149
f 132/153/153 92/108/108 90/106/106 131/152/152
f 157/151/151 158/154/154 132/153/153 131/152/152
f 130/155/155 155/145/145 135/146/146 133/156/156
f 133/156/156 135/146/146 136/157/157 134/158/158
f 135/146/146 121/138/138 119/135/135 136/157/157
f 134/158/158 136/157/157 111/132/132 159/131/131
f 136/157/157 119/135/135 113/133/133 111/132/132
f 137/159/159 138/160/160 132/153/153 158/154/154
f 137/159/159 110/121/121 104/120/120 138/160/160
f 104/120/120 98/113/113 95/110/110 138/160/160
f 138/160/160 95/110/110 92/108/108 132/153/153
f 123/142/142 12/14/14 10/11/11 46/52/52
f 68/86/86 70/85/85 75/90/90 152/124/124
f 99/115/115 101/118/118 80/96/96 83/98/98
f 96/112/112 99/115/115 83/98/98 93/102/102
f 27/30/30 23/26/26 81/97/97 73/88/88
f 59/70/70 29/34/34 26/32/32 66/79/79
